<svg xmlns="http://www.w3.org/2000/svg" xmlns:xlink="http://www.w3.org/1999/xlink" viewBox="0 0 3710 3710"><defs><style>.cls-1{fill:none;}.cls-2{isolation:isolate;}.cls-3,.cls-32{fill:#fff;}.cls-4{clip-path:url(#clip-path);}.cls-5{fill:#3fb76c;}.cls-6{fill:#beb8f2;}.cls-16,.cls-32,.cls-6,.cls-9{mix-blend-mode:soft-light;}.cls-7{fill:#7cc2eb;}.cls-8{clip-path:url(#clip-path-2);}.cls-11,.cls-9{fill:#fcfdfe;}.cls-10{fill:#f1b71c;}.cls-12{fill:#d3d8e0;}.cls-13{fill:url(#linear-gradient);}.cls-14{fill:url(#linear-gradient-2);}.cls-15{fill:#d8dee8;}.cls-16{opacity:0.5;}.cls-17{fill:#d94343;}.cls-18{fill:#876142;}.cls-19{fill:#3374ba;}.cls-20{fill:#2c3035;}.cls-21{mix-blend-mode:multiply;opacity:0.3;fill:url(#linear-gradient-3);}.cls-22{fill:#bf2626;}.cls-23{fill:#a01717;}.cls-24{fill:#a37b54;}.cls-25{fill:url(#linear-gradient-4);}.cls-26{fill:url(#linear-gradient-5);}.cls-27{fill:url(#linear-gradient-6);}.cls-28{fill:url(#linear-gradient-7);}.cls-29{fill:#3475ba;}.cls-30{fill:#7dc1ea;}.cls-31{fill:url(#linear-gradient-8);}</style><clipPath id="clip-path"><path class="cls-1" d="M2507.17,2665c-95.6-341.26,145.31-450.06,242.14-515,146-98,246.85-265,83.44-387.47s87.45-449.41,338.14-564.51c245.32-112.64,266.58-737.54-277.83-556.35-325.12,108.2-358.88,531.11-414.36,743.11S2180,1557.09,2211.44,1839.84c26.82,241.52,66.33,536.41-65,666.56S2554,2832.22,2507.17,2665Z"/></clipPath><clipPath id="clip-path-2"><path class="cls-1" d="M2345.64,2363.15c223.46-273.79-84.3-468.41,177-843.6,69.49-99.79,232.84-266.61,210.61-405.34-25.32-158-151.84-118.59-155.92-237.7-6.38-186.16-121-338.76-292-282.71C2116.67,649.12,2053,967,2175.2,1355c57.55,289.88,26.68,339.93-68.27,446.72-66.51,74.8-287.61,233.11-244.37,396.77S2263.29,2464.06,2345.64,2363.15Z"/></clipPath><linearGradient id="linear-gradient" x1="708.36" y1="2328.3" x2="2994.42" y2="2328.3" gradientUnits="userSpaceOnUse"><stop offset="0" stop-color="#fff"/><stop offset="1" stop-color="#ebeff2"/></linearGradient><linearGradient id="linear-gradient-2" x1="749.73" y1="2328.27" x2="2961.36" y2="2328.27" xlink:href="#linear-gradient"/><linearGradient id="linear-gradient-3" x1="-1689.4" y1="1087.86" x2="-1379.22" y2="1395.55" gradientTransform="matrix(-1, -0.06, -0.06, 1, 1161.51, -6.06)" gradientUnits="userSpaceOnUse"><stop offset="0" stop-color="#40447e"/><stop offset="1" stop-color="#3c3b6b"/></linearGradient><linearGradient id="linear-gradient-4" x1="2636.33" y1="558.66" x2="2591.81" y2="1194.57" gradientTransform="matrix(1, 0.02, -0.02, 1, 65.66, -44.79)" gradientUnits="userSpaceOnUse"><stop offset="0" stop-color="#444b8c"/><stop offset="1" stop-color="#26264f"/></linearGradient><linearGradient id="linear-gradient-5" x1="2642.27" y1="559.07" x2="2597.75" y2="1195" xlink:href="#linear-gradient-4"/><linearGradient id="linear-gradient-6" x1="2630.69" y1="558.26" x2="2586.17" y2="1194.16" xlink:href="#linear-gradient-4"/><linearGradient id="linear-gradient-7" x1="2648.72" y1="559.51" x2="2604.2" y2="1195.46" xlink:href="#linear-gradient-4"/><linearGradient id="linear-gradient-8" x1="2546.94" y1="1988.65" x2="2467.98" y2="3701.91" gradientUnits="userSpaceOnUse"><stop offset="0.49" stop-color="#eaedf1"/><stop offset="1" stop-color="#fff"/></linearGradient></defs><g class="cls-2"><g id="Illustration"><path class="cls-3" d="M1679.53,378.91C1310.35,385.43,739.16,525.8,574.75,886.52c-57.42,126-53.53,311.2-45.76,681.63,2.29,108.88,6.08,267.57,32.69,464.47,55.28,409,92.91,687.48,235.34,849.62,356.87,406.27,1646,394.53,2196.48-336.89,300.3-399,346.5-966.57,71.91-1435.64C2763.1,593.26,2173.78,370.18,1679.53,378.91Z"/><g class="cls-4"><path class="cls-5" d="M2128.29,2511.68h368.37c-5.7-36.94-8.83-62.71-5.67-61.62,31.8-177.9,185.64-251.36,258.32-300.11,146-98,231.2-249.33,105.53-390.87-142.18-160.16,65.36-446,316-561.11,245.32-112.64,266.58-737.54-277.82-556.35-325.12,108.2-358.89,531.11-414.37,743.11S2180,1557.09,2211.44,1839.84c26.82,241.52,128.44,437.29-2.93,567.43C2176.06,2439.41,2149,2474,2128.29,2511.68Z"/><path class="cls-6" d="M2410.27,2115.61c-13.73,57.94-26.15,115.18-37.37,171.06l0,.06h0c-15.72,78.32-29.08,153.88-40.42,224.95h6.75c11.24-70.28,24.44-144.94,40-222.31,152.06-391.72,588.22-392.26,592.44-391.8l1.49-8.73c-4-.95-423,1.68-586.9,366.09,21.94-105.73,48.17-215.78,79.49-325.66,80.12-281.06,203.6-593.13,389.38-814.57,252.57-127,438.85,8.37,440.71,9.76l3.64-7.76c-1.85-1.38-183.13-133.27-430.95-17.67,142.85-164.25,321.62-275,544.53-279.37l.41-8.84c-233.49,4.63-438.8,124.2-610.22,355.4q-31.12,42-60.76,88.87c31.62-292.15,187.8-670.17,189.39-674l-5.84-3.79c-1.62,3.91-162.76,393.91-191.46,689.32l.68,0c-107.56,173.22-200.13,394.62-275.83,660.25-15.2,53.32-29.19,106.69-42.09,159.59-3.27-260.24-169.57-476.31-171.32-478.55l-4.87,6.55C2242.89,1616.78,2419.66,1846.49,2410.27,2115.61Z"/><path class="cls-6" d="M2184.09,2511.68H2193c-15.4-25.31-29.12-46-38.28-59.89-5.31-8-9.9-14.95-10.52-16.42l-6,4.62c.86,2.08,3.89,6.7,11.29,17.88C2157.93,2470.55,2170.22,2489.13,2184.09,2511.68Z"/></g><path class="cls-7" d="M2433,2127.13c-13.48-19.13,3.11,51.19-19.93,44.91-47.38-12.91-35.51,36.94-158.16-28.43L1889.48,2044c56.79-102.85,172.45-191.7,217.45-242.3,95-106.79,125.82-156.84,68.28-446.72-122.27-388-58.54-705.87,110.15-761.19,170.92-56,285.58,96.55,292,282.71,4.08,119.11,130.6,79.66,155.92,237.7,22.23,138.73-141.12,305.55-210.61,405.34C2341.11,1780.19,2434.19,1953.69,2433,2127.13Z"/><g class="cls-8"><path class="cls-9" d="M2305.19,1650.29c57.3-288.37,419-625.71,422.69-629.09l-4.16-5.07c-3.41,3.15-317.78,296.35-408.34,571.15q15.67-101.46,25.12-201.48,6.91-73.52,10.4-146.15h0l0-.19c4.37-90,4.85-178.84,1.39-265.74h.1c23.46-161.91,83.44-327.49,103.15-381.9,4.78-13.18,6.44-17.82,6.76-19.53l-6.33-1.1c-.26,1.31-3,8.84-6.44,18.37-18.32,50.56-71.3,196.81-97.73,347.36a.61.61,0,0,1-1.21-.08q-1.63-30.83-3.91-61.32c-8.67-115.11-24.33-225.14-46.54-327-3.87-17.76-8.77-35.66-13.51-53-6.32-23.06-12.85-46.91-17-70.61l-6.35,1.45c4.18,24,10.76,48,17.12,71.25,4.72,17.23,9.6,35,13.43,52.61,22.14,101.58,37.75,211.28,46.4,326.07,8.26,109.68,10,222.94,5.32,338.33-40.7-144.06-249-299.33-258.39-306.24l-3.81,5.64c2.39,1.77,239.62,178.53,261,326q-3.53,72.18-10.35,145.29c-20.42,217-63.24,440.33-127.28,663.88-7.16,25-14.69,50.06-22.41,75.15l6.2,1.69C2198.3,2101,2205.82,2076,2213,2051A3815.62,3815.62,0,0,0,2305,1650.26Zm-358.77,278.43c.82,1.42,36.56,64.25,71.41,150.27l7.86,2.14C1990.05,1992,1952.81,1926.49,1952,1925Z"/></g><path class="cls-10" d="M941.93,2187.08c-5.5,48.8-15.51,88.3-23.1,135.72,199.12-56.16,401.37-73.79,603.35-130.36-181-200.88-327.08-274.52-312.11-587.7,7-147,64-434.58-21.46-557.65-97.31-140.2-199-76.9-199.86-221.4-1.3-225.86-155.29-431.24-429.22-277.2-270.36,152-87.78,936.22,124.12,1114.73C833.52,1851.26,970.65,1932.26,941.93,2187.08Z"/><path class="cls-11" d="M1226.24,2231.31c-31-69.76-68-137.91-103.63-203.82l-13.5-25c-28.6-53-53.25-100.91-75-143.18-12.23-23.78-23.79-46.25-35.17-67.94-34.59-65.91-59-112.09-71.22-135.27-4.22-8-7-13.24-8.25-15.63-95.31-181.77-158-463.89-191.63-615.46-3.64-16.42-6.9-31.09-9.78-43.69C668.7,765,591.43,545.85,488.39,329.89l2.73-1.3C594.24,544.75,671.59,764.15,721,980.7c2.87,12.6,6.13,27.28,9.78,43.71,33.63,151.43,96.23,433.3,191.35,614.7,1.26,2.39,4,7.65,8.25,15.63,12.24,23.18,36.63,69.36,71.22,135.28,11.39,21.7,22.95,44.17,35.19,68,21.73,42.26,46.37,90.16,75,143.13l13.49,24.94c35.71,66,72.65,134.17,103.74,204Z"/><path class="cls-11" d="M1047.3,1896.57c-57.25-123.06-74.91-290.69-51.08-484.78,19.86-161.71,68.55-336.42,133.6-479.35l2.74,1.26c-64.92,142.65-113.52,317-133.34,478.46C975.46,1605.69,993,1772.75,1050,1895.3Z"/><path class="cls-11" d="M736.08,1049.64l-3-.1C737,932.2,755.77,814.64,773.93,701c12.44-77.82,25.3-158.3,33.29-238.06l3,.3c-8,79.85-20.87,160.37-33.31,238.24C758.76,815,740,932.48,736.08,1049.64Z"/><path class="cls-11" d="M829.65,1417.67C735.87,1283.81,549.57,1147.09,431,1125.1l.55-3C550.77,1144.25,738,1281.54,832.12,1416Z"/><path class="cls-12" d="M2962.93,1605.29c0-55.3-36.31-102.32-83.74-114.16-1.69-.43-3.79-.81-5.51-1.14a100.27,100.27,0,0,0-16.06-1.71l-1026.65-25-1026.64-25h0c-42.19,0-79.55,17.93-103.11,48.62a123.08,123.08,0,0,0-25.48,75.75v92h0V3098.3a123,123,0,0,0,7.64,43.62,119,119,0,0,0,88.88,74.81c1.81.35,3.59.65,5.43.93.25,0,.47.09.72.12,8.38,1.21,17.05.89,25.93.36l1573.58-94.59h0l480.29-27.91c57.55-3.44,104.73-56.74,104.73-119.94V1687.38h0Z"/><path class="cls-13" d="M2890.49,1488.28,837.38,1437.56c-71.06-1.75-129,54.23-129,125.06V3098.3c0,70.83,58,124.78,129,120.54l2053.11-122.5c57.54-3.44,103.93-57.44,103.93-120.64V1605.29C2994.42,1542.09,2948,1489.7,2890.49,1488.28Z"/><path class="cls-14" d="M837.38,3178.14c-48.24,2.79-87.65-34-87.65-82.06V1563.39a85.18,85.18,0,0,1,87.65-85.13L2890.49,1525c39.14.89,70.87,36.62,70.87,79.65v1372.8c0,43-31.73,79.87-70.87,82.13Z"/><path class="cls-15" d="M2890.49,1488.28,837.38,1437.56c-71.06-1.75-129,54.23-129,125.06v92l2286.07,32.77v-82.09C2994.43,1542.09,2948,1489.7,2890.49,1488.28Z"/><path class="cls-3" d="M937.42,1554.6a40.72,40.72,0,0,1-41.65,40.8A42.64,42.64,0,0,1,854,1553a40.71,40.71,0,0,1,41.82-40.79A42.66,42.66,0,0,1,937.42,1554.6Z"/><path class="cls-3" d="M1082.43,1557.39a40.31,40.31,0,0,1-41.08,40.53,42.22,42.22,0,0,1-41.25-42.11,40.3,40.3,0,0,1,41.25-40.52A42.21,42.21,0,0,1,1082.43,1557.39Z"/><path class="cls-3" d="M1225.45,1560.15a39.89,39.89,0,0,1-40.52,40.25c-22.45-.39-40.68-19.11-40.68-41.82a39.87,39.87,0,0,1,40.68-40.24C1207.33,1518.81,1225.45,1537.53,1225.45,1560.15Z"/><polygon class="cls-15" points="2873.08 2982.76 858.7 3090.85 858.7 1886.58 2873.08 1893.51 2873.08 2982.76"/><polygon class="cls-15" points="1958.11 1772.14 858.71 1761.86 858.71 1826.92 1958.11 1833.81 1958.11 1772.14"/><polygon class="cls-15" points="2761.56 1779.66 2761.56 1838.84 2873.08 1839.54 2873.08 1780.7 2761.56 1779.66"/><g class="cls-16"><path class="cls-3" d="M2107.31,2265.64c-239-345.85-656.66-227.25-923.59-614.23-48.36-70.11-81.22-141.7-103.77-207.86l-242.57-6c-71.06-1.75-129,54.23-129,125.06V3098.3c0,70.83,58,124.78,129,120.54L2411,3125a1259.61,1259.61,0,0,1-124.47-221.48C2148.08,2585.86,2250.67,2473.11,2107.31,2265.64Z"/></g><path class="cls-17" d="M889.52,766A31.52,31.52,0,0,0,907,738.19c.13-12.92-.9-27.8-6.17-29.6-9.5-3.24-68.49,33.16-91.86,50.17s-67.77,57.47-68.17,70.41C740.49,839.57,847.6,787,889.52,766Z"/><path class="cls-18" d="M907,832.11l-10.47-59.93a16,16,0,0,0-21.31-12.25h0a16,16,0,0,0-10.13,11.82L849.25,850Z"/><polygon class="cls-18" points="1148.04 845.15 1145.99 783.78 1115.88 774.79 1100.56 841.72 1148.04 845.15"/><path class="cls-17" d="M1152.27,812.53c-18,20.29-86.57-29.43-116.14-49.09-19.25-12.79-26.87-32-24.42-45.53s31.93-6.58,59.19,10.76c15.17,9.65,54.83,24.37,74.4,41.79C1160.89,784.32,1161.53,802.1,1152.27,812.53Z"/><path class="cls-19" d="M1391.63,1310.1c40.4-36.49,83.88-98,67.47-121.66-25.67-36.91-164.46,66.83-243.34,20.89-45.42-26.45-84-110-36.16-374.79l-85-6.31c-28.53,57.2-67.23,153-73.46,276-.1,2-.25,5-.42,8.93-2.47,57.82-7.32,191.5,59.47,250.2C1156.59,1430.43,1309.56,1384.24,1391.63,1310.1Z"/><path class="cls-7" d="M1526.74,1143.73c-16.13-8.66-30.28-12.59-44.85-10.5-38.55,5.53-50.29,49-87.58,86.39-46.72,46.9-106.83,57.59-124.24,60.69-106.53,19-194.45-42.59-209.93-54-1.51-1.11-2.69-2-3.5-2.6C886.16,1096.1,927.8,826.42,930.05,813.06L838.6,823c-14.26,25.06-119.84,217.86-31.84,418.66,12.23,27.92,53.94,119.79,152,181.42,100.59,63.21,173.82,40.16,428.88,45,299.42,5.65,367.93,40.61,395-4.6C1834.44,1377,1596.17,1181,1526.74,1143.73Z"/><path class="cls-20" d="M2132.21,1138c20.43-16.8,46.21-38,66.93-55.1,35.5-29.25,57.32-75.08,53.29-120.9-7.15-81.19-63.54-99.67-110.81-105.94-45-6-99.13,18.18-151.15,27.3-85.66,15-147.71-16.71-162.6-27.49-95.45-69.13-59.34-148-145.17-240.16-5.94-6.37-115.18-120.15-255.13-96.35-119,20.24-221.55,133.4-225.33,257.41-4.26,139.57,117.51,261.75,220.69,281,40.15,7.49,91.39,2,148.32,39.33,34.62,22.71,47.29,45.48,63.88,63.77C1733,1268.76,1994.75,1251,2132.21,1138Z"/><path class="cls-17" d="M2138.45,1158.36c19.63,6.16,16.7,32.83,57.62,92.94,21.52,31.62,39,57.28,64.66,75.73,80.2,57.68,173.1-3.41,219.38,51.42,12.43,14.73,25.35,42.41,15.89,62.35-17.24,36.35-95.78,19.4-365.77-8.51-109.62-11.33-136.31-12.63-150.19-36.13C1936.73,1322.76,2082,1140.65,2138.45,1158.36Z"/><path class="cls-20" d="M2447.54,1430.12l-433.27-6.64a18.18,18.18,0,0,0-15.06,7.6L1986,1449.49a14.06,14.06,0,0,0,11.07,22.24l458.63,11.86Z"/><path class="cls-20" d="M2912.19,1218.35l-446.79-19.92a37.51,37.51,0,0,0-33,16.89l-171.93,262,472.48,11.4a38.46,38.46,0,0,0,32.58-16.62l158.48-230A15.14,15.14,0,0,0,2912.19,1218.35Z"/><path class="cls-21" d="M2432.37,1215.32a37.51,37.51,0,0,1,33-16.89l9.79.44c.54,14.49,4.12,28,12.25,39.16,25.39,35,72.41,17.41,104.24,54.74,35,41-2.57,84.76,28.6,122.83,32.8,40.08,91.73,12.93,155.65,41.33l-10.43,15.15a38.46,38.46,0,0,1-32.58,16.62l-472.48-11.4Z"/><path class="cls-22" d="M2060.81,1073.33c34.84,13.91,71.5,28.08,91,62.19,36.51,63.76,4,180-52,245.3-39.19,45.65-92.18,57.8-196.56,80.24-135.27,29.07-201.73,41.39-253.23,5.33-56.47-39.54-30-91.49-112-214.37-61.3-91.83-116.27-123-106.19-152.66,11.23-33,90.18-26.26,120.28-23.68,118.37,10.12,126.66,64.45,202.88,61,89.47-4.12,104-80.16,213.36-80.82A248.35,248.35,0,0,1,2060.81,1073.33Z"/><path class="cls-23" d="M1638.76,1285c46.74,29.76,79.61-7.83,182-8.24,140.44-.56,186,69.68,268.48,39.57,20.09-7.34,44.68-21.57,69.22-51.09-11.19,42.64-32.26,84.79-58.68,115.58-39.19,45.65-92.18,57.8-196.56,80.24-135.27,29.07-201.73,41.39-253.23,5.33-56.47-39.54-30-91.49-112-214.37-61.3-91.83-116.27-123-106.19-152.66,2.23-6.54,7.18-11.47,13.81-15.23,53.41,10.08,87.79,31.39,110.41,56.33C1604.78,1194.24,1588,1252.65,1638.76,1285Z"/><path class="cls-18" d="M2092.63,1092.4c9.84,5.75,26.35,15.8,32,28.73,10.21,23.53-11.84,66.18-36.92,69.75-20.75,2.95-28.57-23-78.74-64.71-45.66-38-76.49-47.53-73.74-58.77,1.77-7.19,17.13-14.35,81.51-11.82,10.2-12.61,36.75-33.47,47-46.07,14,3.14,11.59,14.53,25.56,17.67-24.36,29.22-25.44,43-21.57,50.24C2071,1083.67,2077.24,1083.4,2092.63,1092.4Z"/><path class="cls-24" d="M2009,1004.48s-6.59,98.84,70.29,136c68.83,33.32,162.35-91.5,137.83-175.83-9.94-34.21-38.91-50-65.6-56.62-18.78-4.64-83.56-8.06-109.86,52.45-5.39-20-17.8-33.55-31.46-34.57a26,26,0,0,0-13.72,3.6C1977.52,941.3,1980.73,971.82,2009,1004.48Z"/><path class="cls-24" d="M2194.67,1428.9c5.93-6.19-10.2-42.5-41.15-56.64-32.74-15-66.23,2.14-71.64,5l2.08,25.26a198.07,198.07,0,0,1,62.05,8.71C2176.41,1420.66,2190.42,1433.33,2194.67,1428.9Z"/><path class="cls-17" d="M2084.51,1369.7a420.24,420.24,0,0,0-73.34-19.62c-61.09-10.55-84.21-.53-112.17-18-25.1-15.69-47.27-49.27-47.22-83.38.09-58.22,64.86-83.37,64.86-156.62,0-15.66-3-19.78-5.23-21.88-24.47-22.69-139.5,31.13-195.1,121.77-12.89,21-69.17,119.91-24.77,205.6,50.54,97.56,199.13,115.37,296.79,74.77,46-19.12,76.56-49.47,94.1-70.43Q2083.47,1385.8,2084.51,1369.7Z"/><path class="cls-25" d="M2860.67,887.89A291.37,291.37,0,0,0,2655.42,797c-78.42-1.94-149.18,19.88-205.86,73.83-11.73,11.17-15.82,36.57-4.64,48.3a29.33,29.33,0,0,0,41.47,1,235,235,0,0,1,331.79,8.18,29.31,29.31,0,0,0,34.53,5.92h0s20.89-8.89,23-32.42a58.81,58.81,0,0,0-7.16,2.73A29.22,29.22,0,0,0,2860.67,887.89Z"/><path class="cls-26" d="M2775.68,968.79c-66.92-70.29-174.32-80.69-244.62-13.78-11.73,11.17-16.42,37.39-5.24,49.12a29.34,29.34,0,0,0,41.47,1,117.48,117.48,0,0,1,165.9,4.09,29.26,29.26,0,0,0,40.66,1.71v0A49.13,49.13,0,0,0,2791,979.91c-2.83,3.4-5.25,6.3-7.3,8.83A29.23,29.23,0,0,0,2775.68,968.79Z"/><path class="cls-27" d="M2953.7,826.31a29.18,29.18,0,0,0-8-19.32c-75.52-79.34-177.57-124.53-287.35-127.23s-208.77,28.58-288.1,104.1c-11.74,11.17-17.37,38.55-6.2,50.29a29.33,29.33,0,0,0,41.47,1c68-64.72,157.27-99.08,251.38-96.76s181.59,41,246.31,109a29.25,29.25,0,0,0,33.26,6.51v0s.25-.08.69-.26c3.43-1.39,18.69-8.7,22.94-30C2957.8,824.69,2955.69,825.54,2953.7,826.31Z"/><path class="cls-28" d="M2706.81,1088a58.66,58.66,0,0,0-57.17-56.53c-15.67-.38-28.88.46-40.23,11.26s-19.49,30.28-19.87,46a58.65,58.65,0,0,0,57.37,60.1c14.78.37,28.11-4.74,40.09-14.37h0s27.43-20.56,27.33-55A79.59,79.59,0,0,0,2706.81,1088Z"/><path class="cls-19" d="M2931,845.46a29.25,29.25,0,0,1-20.53-9.1c-64.71-68-152.19-106.71-246.31-109s-183.38,32-251.38,96.76a29.33,29.33,0,1,1-40.44-42.5c79.33-75.52,183.5-115.62,293.27-112.92h0c109.79,2.71,211.83,47.9,287.35,127.24a29.33,29.33,0,0,1-22,49.55Z"/><path class="cls-19" d="M2846,926.36a29.24,29.24,0,0,1-20.52-9.1,235,235,0,0,0-331.79-8.18,29.34,29.34,0,0,1-40.45-42.5A293.63,293.63,0,0,1,2868,876.81a29.33,29.33,0,0,1-22,49.55Z"/><path class="cls-19" d="M2761,1007.26a29.2,29.2,0,0,1-20.52-9.1,117.48,117.48,0,0,0-165.9-4.09,29.33,29.33,0,0,1-40.45-42.49c70.3-66.92,181.92-64.16,248.84,6.13a29.33,29.33,0,0,1-22,49.55Z"/><path class="cls-19" d="M2654.06,1137.72a58.69,58.69,0,1,1,41.89-16.16A58.26,58.26,0,0,1,2654.06,1137.72Z"/><path class="cls-29" d="M2809.35,2045.55c0-20.22-14.83-37.16-32.23-37.85l-573-14.74c-20.83-.82-36.84,16.54-36.84,38.78v1316.8c0,22.24,15.27,38.64,36.11,36.53l574.2-37.43c17.39-1.75,31.73-19.56,31.73-39.78Z"/><path class="cls-30" d="M2831.22,2045.55c0-20.22-13.56-37.16-31-37.85L2227.65,1993c-20.84-.82-36.49,16.54-36.49,38.78v1316.8c0,22.24,15.56,38.64,36.39,36.53l573.07-37.43c17.39-1.75,30.6-19.56,30.6-39.78Z"/><path class="cls-31" d="M2793.45,2128.53V3230.91c0,10.74-8,21.21-17.22,22L2313,3271.48l-57.12,5.15a15.89,15.89,0,0,1-9-1.81c-6-3.32-10-10.67-10-18.87V2125.41c0-6.4,2-12,6.16-15.75a20.38,20.38,0,0,1,3.87-2.71,16,16,0,0,1,8.57-2l57.42,1.61,463.42,2.23C2785.59,2109,2793.45,2117.79,2793.45,2128.53Z"/><path class="cls-32" d="M2761.63,3254.25l-505.48,22.33c-11,1-19.27-8.92-19.27-20.63V2125.41c0-6.39,2.25-12.06,6.45-15.81,2.53,6.71,5.05,13.32,8,19.8,86.51,191,258.8,66.09,372.72,254.57,89.17,147.53,20.27,287.3,121,451.26,79.63,129.57-113.84,96.27-41.29,221C2731.67,3104.21,2749.86,3196.83,2761.63,3254.25Z"/><path class="cls-29" d="M2592.59,3313a12.84,12.84,0,0,1-11.9,12.49l-109.4,6.71a11,11,0,0,1-12-11.18h0a13.06,13.06,0,0,1,12.2-12.64l109.39-6.45a10.86,10.86,0,0,1,11.68,11.07Z"/></g></g></svg>