<svg xmlns="http://www.w3.org/2000/svg" xmlns:xlink="http://www.w3.org/1999/xlink" viewBox="0 0 3710 3710"><defs><style>.cls-1{fill:#f0b71c;}.cls-2{fill:#40b76c;}.cls-3{fill:none;}.cls-4{isolation:isolate;}.cls-14,.cls-21,.cls-26,.cls-28,.cls-5{fill:#fff;}.cls-6{clip-path:url(#clip-path);}.cls-14,.cls-7{mix-blend-mode:soft-light;}.cls-8{clip-path:url(#clip-path-2);}.cls-9{fill:url(#linear-gradient);}.cls-10{fill:#96a6b7;}.cls-11{fill:url(#linear-gradient-2);}.cls-12,.cls-13{fill:#d8dee8;}.cls-12,.cls-18,.cls-27{mix-blend-mode:multiply;}.cls-12,.cls-18{opacity:0.3;}.cls-14{opacity:0.6;}.cls-15{clip-path:url(#clip-path-3);}.cls-16{fill:#83492a;}.cls-17,.cls-27{fill:#d94443;}.cls-19{fill:#2d3136;}.cls-20{opacity:0.06;}.cls-21{stroke:#010101;stroke-miterlimit:10;}.cls-22{fill:#3575bb;}.cls-23{fill:#fcc751;}.cls-24{fill:#7ec2eb;}.cls-25{fill:url(#linear-gradient-3);}.cls-26{opacity:0.1;}.cls-27{opacity:0.5;}.cls-28{opacity:0.7;}</style><clipPath id="clip-path"><path class="cls-1" d="M1990.6,2696.13c-53.65-132.57-112.9-336.47-75.41-569.83,43-268,174.31-329.84,276.32-620.05,145.62-414.26-69.65-692.68,100.94-827.81,83.19-65.9,220.37-75.21,309-20.68,252.92,155.58,237.32,908.69-125.81,1226.69-164.23,143.82-316.39,138.36-434.79,318.11C1936.26,2361.39,1958.72,2560.09,1990.6,2696.13Z"/></clipPath><clipPath id="clip-path-2"><path class="cls-2" d="M1915.84,2353.1c-21.21-90-39.46-231.69,26.07-363.89,114.34-230.63,355-172.94,564.59-425.91,169-204,101.61-349.17,294.65-490.22,32.31-23.6,202.72-153,340.11-91.28,77.43,34.79,110,114.74,116.15,129.75,92.49,226.85-119.32,606.1-416.16,793.06-170.54,107.42-229.75,80.08-533.7,212.45A1756.68,1756.68,0,0,0,1915.84,2353.1Z"/></clipPath><linearGradient id="linear-gradient" x1="-2427.2" y1="1611.61" x2="-3762.43" y2="2708.41" gradientTransform="translate(5773.93 931.82) rotate(15.11)" gradientUnits="userSpaceOnUse"><stop offset="0" stop-color="#ffc546"/><stop offset="1" stop-color="#f36f56"/></linearGradient><linearGradient id="linear-gradient-2" x1="2141.8" y1="2754.64" x2="2141.8" y2="3007.3" gradientUnits="userSpaceOnUse"><stop offset="0.49" stop-color="#eceff2"/><stop offset="1" stop-color="#fff"/></linearGradient><clipPath id="clip-path-3"><path class="cls-3" d="M3021.29,1510.77c0-16.65-24.65-551.29-41.41-551.71L1302.62,438.7c-21.82-.56-945.52-39.64-867.25,883.28l595.95,1199c0,19.07,17.75,33.71,39.58,32.7l1920.77-88.94A32,32,0,0,0,3022,2433.2Z"/></clipPath><linearGradient id="linear-gradient-3" x1="2272.3" y1="1199.92" x2="2890.41" y2="1199.92" gradientUnits="userSpaceOnUse"><stop offset="0" stop-color="#454c8d"/><stop offset="1" stop-color="#26274f"/></linearGradient></defs><g class="cls-4"><g id="Layer_1" data-name="Layer 1"><path class="cls-5" d="M3243.82,1733.61C3178.38,1305.24,2910.05,779,2380,723.88c0,0-402.48-49-799.24,25.24-235.47,44-441.95,175.12-572.6,363.53S833.82,1530.78,886.78,1749.8c34.4,142.26,57.65,289.48,51.27,435.66-11.11,254.41-4.72,491.88,242.18,643.6,220.45,135.46,497.88,254.94,762.56,275.87,179.88,14.22,381.6-8.79,555-55.62C3381.26,2810.65,3309.27,2162,3243.82,1733.61Z"/><path class="cls-1" d="M1990.6,2696.13c-53.65-132.57-112.9-336.47-75.41-569.83,43-268,174.31-329.84,276.32-620.05,145.62-414.26-69.65-692.68,100.94-827.81,83.19-65.9,220.37-75.21,309-20.68,252.92,155.58,237.32,908.69-125.81,1226.69-164.23,143.82-316.39,138.36-434.79,318.11C1936.26,2361.39,1958.72,2560.09,1990.6,2696.13Z"/><g class="cls-6"><g class="cls-7"><path class="cls-5" d="M1939.83,2356.75a1031.74,1031.74,0,0,1,46.75-170.52c46.8-126.71,103-198.46,174.23-289.29,46.43-59.24,99.06-126.39,158.69-221.59,111.57-178.12,145.72-240.34,173.43-338.78,54.83-194.8,32.91-364.65,15-448.56a928,928,0,0,0-142.83-331.89l-2.71,1.85a924.65,924.65,0,0,1,142.33,330.72c17.88,83.62,39.72,252.88-14.92,447-27.6,98-61.68,160.13-173.05,337.92-59.54,95.06-112.11,162.14-158.5,221.32-71.37,91.06-127.74,163-174.71,290.17a1034.46,1034.46,0,0,0-46.9,171.07Z"/><path class="cls-5" d="M2517.87,1199.11l2.28-1.44c.69-.44,69.41-44.49,127.45-128.63,53.58-77.68,108.81-206.41,67.63-378.53l-3.19.76c40.9,170.94-13.94,298.77-67.14,375.91-51.74,75-111.92,117.88-124.24,126.21-13-139.28-108.5-223.62-186.58-269.93-85-50.44-168.33-67.85-169.16-68l-.66,3.22c.83.17,83.66,17.49,168.23,67.67,77.89,46.22,173.24,130.59,185.15,270.09Z"/><path class="cls-5" d="M2496.53,1650.1c72.31,0,172.83-17.55,260.73-96l-2.18-2.45c-91.49,81.68-196.85,96.79-269.1,95.07-71.85-1.71-126.06-19.89-135-23.06,26.41-140-11.88-239.26-48.72-298-40.08-63.88-87.21-94.91-87.68-95.22l-1.79,2.75c.47.31,47.09,31,86.77,94.35,36.61,58.41,74.64,157.33,47.94,296.88l-.26,1.36,1.29.49c.57.21,58.46,21.86,137.36,23.73C2489.37,1650.06,2492.92,1650.1,2496.53,1650.1Z"/><path class="cls-5" d="M2353.16,1923c58.27,0,133.17-12.13,222.45-51.75l-1.33-3c-132.77,58.93-233.46,56.71-294.55,44.46-60.25-12.07-94.87-36-100.84-40.37,50.92-144.68-49.32-366.88-50.34-369.12l-3,1.37c1,2.22,101.22,224.39,49.83,367.78l-.4,1.11.92.73c.35.28,36.08,28.24,102.94,41.68A377.27,377.27,0,0,0,2353.16,1923Z"/></g></g><path class="cls-2" d="M1915.84,2353.1c-21.21-90-39.46-231.69,26.07-363.89,114.34-230.63,355-172.94,564.59-425.91,169-204,101.61-349.17,294.65-490.22,32.31-23.6,202.72-153,340.11-91.28,77.43,34.79,110,114.74,116.15,129.75,92.49,226.85-119.32,606.1-416.16,793.06-170.54,107.42-229.75,80.08-533.7,212.45A1756.68,1756.68,0,0,0,1915.84,2353.1Z"/><g class="cls-8"><g class="cls-7"><path class="cls-5" d="M1896.6,2464.42c30.48-219.74,106.07-371,224.67-449.62,57.89-38.36,105.6-47,156.12-56.25,55-10,112-20.39,184.72-71.38,70.78-49.61,94.28-94.26,124-150.8,26.49-50.33,59.45-113,137.12-198.65,68.1-75.12,118.94-111.57,163.79-143.73,49-35.14,87.73-62.9,130.46-127.5,69.66-105.3,100.93-236.32,92.95-389.41l-3.28.17c7.95,152.38-23.14,282.73-92.4,387.43-42.41,64.1-80.9,91.7-129.64,126.65-45,32.25-96,68.81-164.31,144.18-78,86-111,148.84-137.6,199.33-29.55,56.15-52.89,100.49-123,149.64-72.16,50.58-128.72,60.88-183.42,70.84-50.86,9.26-98.89,18-157.35,56.75C2000,2091.21,1924,2243.25,1893.35,2464Z"/><path class="cls-5" d="M2864.4,1408.49l2.2-.08c168-6.21,288.3-78,359.64-137.08,77.3-64,115.4-127.51,115.78-128.14l-2.82-1.68c-.38.64-38.25,63.69-115.16,127.37-70.63,58.49-189.51,129.46-355.39,136.16,3.19-13.15,19.93-85.38,24.17-168.82,4.31-85-3.85-199.32-67.21-261.44l-2.3,2.35c119.76,117.39,42.43,426.13,41.64,429.23Z"/><path class="cls-5" d="M2865.22,1665.7c106.84,0,257.16-23.11,402.81-124.36l-1.87-2.7c-154.73,107.57-314.79,126.53-421.81,123.48-107.89-3.06-185-28.47-195.95-32.25,32.43-161.09-21-382.09-21.51-384.31l-3.19.78c.55,2.22,54.07,223.8,21.2,384.27l-.28,1.38,1.32.49c.81.3,81.67,29.59,198.19,32.92C2851,1665.59,2858,1665.7,2865.22,1665.7Z"/><path class="cls-5" d="M2731.61,2043.23c30.07,0,61.57-1.31,94.46-4.25l-.29-3.26c-161.84,14.44-288.87-10.84-366.93-34.59-76.21-23.19-121.76-49.42-130.32-54.57,109.26-155.39,46.34-393.53,45.69-395.93l-3.16.86c.64,2.39,63.52,240.53-46.22,394.61l-1,1.4,1.46.93C2327,1949.49,2477.57,2043.23,2731.61,2043.23Z"/></g></g><path class="cls-9" d="M1907.44,2276A985.62,985.62,0,0,1,2143.8,2130.8c193.58-83.71,287.26-48.36,365.56-137.88,81-92.66,19-174.34,116.48-278.28,8.2-8.74,113.07-117.66,216.69-86.73,72.49,21.63,105.44,100.09,120.9,136.9,60,142.87,45.92,367.7-102.69,488.16-140.9,114.21-331.55,77.19-392.1,65-106.24-21.36-133.71-60.35-241.5-78.9C2096.06,2216.52,1981.7,2247.51,1907.44,2276Z"/><path class="cls-10" d="M2374.15,2995.44a107.49,107.49,0,0,1-71.26-80.93l-53-262.17-453.13,16.09L1741,2941.55c-7.81,38.26,23.45,76.63,59.46,90.72l189.58,74.17a246.28,246.28,0,0,0,110.83,16.07l400.65-34.27a24.85,24.85,0,0,0,22.47-22c1.37-11.81,9.57-25.08-1.6-28.78Z"/><path class="cls-11" d="M2378.64,2979.49a106.54,106.54,0,0,1-71.2-79.91l-52.92-258.87-442.08,15.91-55.71,269.68a78.91,78.91,0,0,0,48.81,89.56l189.39,73.24A248.76,248.76,0,0,0,2105.65,3105l400.25-33.84a24.7,24.7,0,0,0,5.61-48.08Z"/><path class="cls-10" d="M870.88,2826.59c-49.14,2.93-89.34-29-89.34-71.07V1237.13c0-42.13,40.2-74.66,89.34-72.53l2272.47,98.46c36.07,1.56,65.29,32,65.29,67.81V2622.25c0,35.83-29.22,66.72-65.29,68.87Z"/><path class="cls-5" d="M891.3,2826.59c-49.14,2.93-89.34-29-89.34-71.07V1237.13c0-42.13,40.2-74.66,89.34-72.53l2272.47,98.46c36.08,1.56,65.29,32,65.29,67.81V2622.25c0,35.83-29.21,66.72-65.29,68.87Z"/><path class="cls-12" d="M3163.77,1293.45,891.3,1200c-26.27-1.08-47.63,16.27-47.63,38.77V2753.23c0,22.49,21.36,39.5,47.63,38l2272.47-130.49c19.34-1.11,35-17.59,35-36.82V1329.7C3198.74,1310.48,3183.11,1294.25,3163.77,1293.45Z"/><path class="cls-13" d="M891.3,2662.23c-10.23.51-18.56-6.2-18.56-14.95V1239.86c0-8.75,8.33-15.54,18.56-15.13l2272.47,90a14.32,14.32,0,0,1,13.67,14.15V2535.61a14.5,14.5,0,0,1-13.67,14.28Z"/><path class="cls-14" d="M2926.53,2597.14c-191.18-118.27-57.64-454.51-272.35-623.46-216.46-170.32-521,38.58-672.67-137.81-112.9-131.34,19.21-289.93-88.59-413.45-169.06-193.7-601.82,72.7-800.65-118.13-28.23-27.09-56.71-68.2-72.93-134.15l-128-5.54c-49.14-2.13-89.34,30.4-89.34,72.53V2755.52c0,42.12,40.2,74,89.34,71.07l2272.47-135.47c36.08-2.15,65.29-33,65.29-68.87v-23C3078.17,2650.49,2985.92,2633.87,2926.53,2597.14Z"/><path class="cls-5" d="M3021.29,1510.77a31.19,31.19,0,0,0-30.34-30.91l-1920.07-48.58c-21.82-.55-39.56,14.45-39.56,33.51V2521c0,19.07,17.75,33.71,39.58,32.7l1920.77-88.94A32,32,0,0,0,3022,2433.2Z"/><path class="cls-5" d="M1686.87,1348.49c0,15-14.34,26.73-30.91,26.22l-591.67-18.4c-17.92-.55-33-13.69-33-29.33v-2c0-15.64,14.57-27.82,32.49-27.19l592.14,20.6c16.56.57,30.92,13.2,30.92,28.19Z"/><g class="cls-15"><path class="cls-16" d="M2752.7,1571.79c18.94-29.94,89.32-139.08,126.89-185.29,52-64,124.27-139.69,133.19-132.8,5.23,4-12.51,35.63-15.11,40.25-23.38,41.65-42.9,42.06-48.16,67.47-5.63,27.16,14.71,36.23,6.76,65.57-6.47,23.86-25.29,37.7-28.22,39.79-20.71,14.81-35.54,7.48-55.69,18.36-32.44,17.51-64.31,94-75.87,129.49Z"/><path class="cls-17" d="M2759.73,1547.71l54,46.85a849,849,0,0,1,17.42,247.82c-8.76,112.15-28.72,367.79-210.76,466.28-138.84,75.12-303.78,22.16-366.39,1.68-57.91-18.94-109.62-35.38-149.75-79.29-87.74-96-77.77-275.74,11-453.5,77.67,142.8,199,226.87,296,205.89,76.31-16.5,135.15-97.45,160.21-131.86,37.27-51.17,40.26-79.8,82.3-153.76A939,939,0,0,1,2759.73,1547.71Z"/><g class="cls-18"><path class="cls-17" d="M2367.35,2230.39c49.17-34.89,48.6-93.85,121.11-129.45,91.69-45,163.93,14.23,215.71-31,42.27-36.91,24.35-102.76,25-197.44.52-73.44,12.32-174.7,61.82-297.65l22.69,19.7a849,849,0,0,1,17.42,247.82c-8.76,112.15-28.72,367.79-210.76,466.28-138.84,75.12-303.78,22.16-366.39,1.68-57.91-18.94-109.62-35.38-149.75-79.29a206.32,206.32,0,0,1-28.64-40.31C2241.33,2272,2323.21,2261.72,2367.35,2230.39Z"/></g><path class="cls-17" d="M1486,2663.47c-1.25-60.83-4.51-396.53,158-637.92,37.25-55.34,103.16-153.24,229.71-218a541.79,541.79,0,0,1,124.37-45.36l108.27,16.1A658.48,658.48,0,0,1,2229.3,1929c26.24,44.23,69.66,117.44,79.71,211.93,11.72,110.13-32.05,153.53-68,325a1362.43,1362.43,0,0,0-27.8,222.4l-374.57,32.19a1758.81,1758.81,0,0,0-58.52-395.05,1515.86,1515.86,0,0,0-45.36,400.9c-15.17,6-100.57,38-182.89-5.85A199.69,199.69,0,0,1,1486,2663.47Z"/><path class="cls-19" d="M2051.78,1562.47c83.36-67.93,125-101.9,140.57-145.3,33.92-94.85-11.75-202.27-66.33-264.18-76.59-86.88-188.33-104.13-259-115-90.86-14-96.63,7.36-139-10.89-117-50.44-77.6-215.81-186.37-342.74-120-140-335.48-134.14-389.89-130.5C861.83,573.18,713,824.18,698.21,850.15c-137.2,240.62-71.88,530.94,67.91,698.11,40,47.8,142.24,170.09,260.61,157.94,114-11.7,146.13-138.12,304.64-158.85,22.14-2.9,89.25-11.68,162.87,16.7,83.15,32,96.12,81.24,184.8,112.14,71.9,25.06,134.39,17.48,146.88,15.8C1904.51,1681.4,1954.68,1641.6,2051.78,1562.47Z"/><g class="cls-20"><path class="cls-21" d="M670.26,906.11c-29.68,269.54.22,366.66,49.19,386.41,68.52,27.64,158-102.74,265.07-66.94,96.31,32.21,83.59,157.64,172,185.19,111.78,34.81,187-148.49,320.62-137,159,13.68,179.06,284.24,356.1,332,53.63,14.46,127.42,10,228.78-51.67l-10.26,8.36c-97.1,79.13-147.27,118.93-225.86,129.52-12.49,1.68-75,9.26-146.88-15.8-88.68-30.9-101.65-80.09-184.8-112.14-73.62-28.38-140.73-19.6-162.87-16.7-158.51,20.73-190.65,147.15-304.64,158.85-118.37,12.15-220.63-110.14-260.61-157.94C637,1393.86,571.44,1134.42,670.26,906.11Z"/></g><path class="cls-16" d="M2088.51,1599.32s3,78.19,0,130.67c-2.22,38.43,31,60.32,31,60.32s18.24,31.26-80.43,36.48-194.68,0-194.68,0,96.47-64.16,118.51-81.21,33.86-144.53,19.75-225.27Z"/><path class="cls-16" d="M2113.77,1347s50.22,121.08,50,194.24-51.43,115.15-90.23,97.08-97.25-94.15-97.25-94.15-7.86,20.48-37.62,0-51.86-135.51,6-102.87c0,0-9.15-32.25,5.11-79S2096.85,1265.06,2113.77,1347Z"/><g class="cls-18"><path class="cls-17" d="M1696.72,2508.08c43.52-68.3-22.84-127.51,5.35-235.62,24.06-92.24,102.4-164.25,131.19-152.61,39.79,16.08-38.39,182.41,40.17,259.71,52.14,51.31,120.11,11,190.09,56.23,46.15,29.82,92.53,96.48,96.15,257.16l-321,27.59a1758.81,1758.81,0,0,0-58.52-395.05,1515.86,1515.86,0,0,0-45.36,400.9c-15.17,6-100.57,38-182.89-5.85-4.6-2.45-8.94-5-13.09-7.68,2.11-35.45,11.2-75.94,37.45-111.07C1618.9,2544.7,1665.23,2557.49,1696.72,2508.08Z"/></g></g><path class="cls-22" d="M1031.32,2418.5v125.09c0,19,16.77,34,38.52,32.95l1924-91.89c16.69-.8,28.21-15.13,28.2-31.72l-.08-109.25Z"/><path class="cls-5" d="M1176.18,2476.21c0-18.81-17.38-33.38-38.88-32.53l-38.7,1.5c-21.66.85-41.19,17-41.19,35.91v29.06c0,19,19.53,33.47,41.19,32.48l37.75-1.7c21.5-1,39.36-17,39.36-35.86Z"/><path class="cls-5" d="M2976.06,2420.42a20.47,20.47,0,0,1-19.47,20.19L1732.93,2495l-481,21.36c-13.63.62-25-8.64-25-20.68v-4.76c0-12,11.32-22.24,25-22.8l481-19.89,1223.5-50.56a18.57,18.57,0,0,1,19.57,18.53Z"/><path class="cls-17" d="M1732.54,2448.21V2495l-480.78,21.36c-13.63.62-24.75-8.64-24.75-20.68v-4.76c0-12,11.12-22.24,24.75-22.8Z"/><path class="cls-1" d="M1804.39,2471.08c0,23.06-20.43,42.68-45.73,43.84s-46-16.69-46-39.89,20.63-42.83,46-43.85S1804.38,2448,1804.39,2471.08Z"/><polygon class="cls-17" points="776.08 2749.06 1318.11 2725.49 1942.62 2747.38 1326.53 2882.04 776.08 2749.06"/><path class="cls-22" d="M1212.8,3271.38l-439-118.17c-44.22-11.9-78.57-55.71-78.57-98.2v-.46c0-42.49,34.35-71,78.57-63.19l470.9,77.06Z"/><path class="cls-23" d="M1943.37,3182.64,1234,3261.86c-44.44,5-81-26-81-69.28v-29.34c0-43.26,36.53-81.23,81-84.77L1943.37,3022C1912,3080.45,1904.74,3135.12,1943.37,3182.64Z"/><path class="cls-24" d="M1949.55,3190.5,1239.9,3271c-58,6.57-106-34-106-90.61v-.63c0-56.58,48-106.37,106-110.89l709.65-55.35c4.27-.33,7.72,3.22,7.72,7.94s-3.45,8.83-7.72,9.18l-709.65,57.77c-46.62,3.8-85.12,43.91-85.12,89.36v.62c0,45.45,38.5,78.19,85.12,73.07l709.65-78c4.27-.47,7.72,3,7.72,7.69S1953.82,3190,1949.55,3190.5Z"/><path class="cls-17" d="M1231.25,3068.89l-457.5-77.53c-44.22-7.8-78.57-65.76-78.57-129.56v-.7c0-63.79,34.35-114.41,78.57-112.77l485.31,18Z"/><path class="cls-25" d="M2581.36,964.62c-67.32,0-129.6,16.39-180.34,44.19-78,42.71-128.72,112.4-128.72,191.11,0,44.68,16.36,86.46,44.78,122.06l-29.81,79.26a10.29,10.29,0,0,0,7.66,13.7h0l.23,0a10.55,10.55,0,0,0,1.39.14c3.06.27,9.78.73,14,0-.37-.69-.77-1.4-1.18-2.11,28-5.2,70.59-13,99.26-17.91,49.29,25.35,108.72,40.15,172.71,40.15,93.81,0,177.88-31.83,234.57-82.09,46.42-41.16,74.48-94.68,74.48-153.21C2890.41,1070,2752,964.62,2581.36,964.62Z"/><path class="cls-22" d="M2903.31,1199.92c0,58.53-28.06,112-74.48,153.21-56.69,50.26-140.76,82.09-234.57,82.09-64,0-123.42-14.8-172.71-40.15-32.6,5.56-83.19,14.91-109.9,19.88a10.27,10.27,0,0,1-11.48-13.71L2330,1322c-28.42-35.6-44.78-77.38-44.78-122.06,0-78.71,50.76-148.4,128.72-191.11,50.74-27.8,113-44.19,180.34-44.19C2764.93,964.62,2903.31,1070,2903.31,1199.92Z"/><path class="cls-26" d="M2828.83,1353.13c-56.69,50.26-140.76,82.09-234.57,82.09-64,0-123.42-14.8-172.71-40.15-32.6,5.56-83.19,14.91-109.9,19.88a10.27,10.27,0,0,1-11.48-13.71L2330,1322c-28.42-35.6-44.78-77.38-44.78-122.06,0-78.71,50.76-148.4,128.72-191.11,40.77,5.54,76.17,19.72,97.66,48.16,47.28,62.65-6.06,150.52,43.31,195,49,44.1,127.35-19.12,198.59,10.83C2780.26,1274,2807.76,1299.19,2828.83,1353.13Z"/><path class="cls-27" d="M1231.25,3068.89l-457.5-77.53c-44.22-7.8-78.57-65.76-78.57-129.56v-.7c0-63.79,34.35-114.41,78.57-112.77l485.31,18Z"/><path class="cls-1" d="M1089.38,3005l-97.8-17.09c-22.83-62.33-21.11-119.58,0-188l97.8,7C1069.33,2878.82,1072.37,2944,1089.38,3005Z"/><path class="cls-23" d="M1943.37,3001.11l-669.65,50.51c-66,5-120.73-43.55-120.73-108.49v-44.06c0-65,54.68-119.09,120.73-120.89l669.65-18.26C1911.88,2847.49,1904.84,2929.49,1943.37,3001.11Z"/><path class="cls-17" d="M1949.55,3013.49l-709.65,55.35c-58,4.52-106-60.86-106-145.83v-.93c0-85,48-155.29,106-156.73l709.65-17.64c4.27-.11,7.72,5.55,7.72,12.63s-3.45,12.94-7.72,13.06l-709.65,21.29c-46.62,1.39-85.12,58.07-85.12,126.32v.93c0,68.24,38.5,121,85.12,117.56l709.65-51.7c4.27-.31,7.72,5.18,7.72,12.26S1953.82,3013.16,1949.55,3013.49Z"/><path class="cls-28" d="M2724,1090.28c-22.59,1.34-91.83,2.49-125-30.09a6.71,6.71,0,0,0-9.37,0c-33.17,32.58-102.41,31.43-125,30.09a6.76,6.76,0,0,0-7.15,6.94c5.22,180.93,113.69,246.66,133.68,257.26a6.71,6.71,0,0,0,6.31,0c20-10.6,128.46-76.33,133.68-257.26A6.75,6.75,0,0,0,2724,1090.28Z"/><path class="cls-28" d="M2681.27,1128.62c-15.16.9-61.61,1.67-83.87-20.19a4.5,4.5,0,0,0-6.28,0c-22.26,21.86-68.72,21.09-83.87,20.19a4.52,4.52,0,0,0-4.79,4.65c3.5,121.39,76.27,165.49,89.68,172.6a4.52,4.52,0,0,0,4.23,0c13.41-7.11,86.19-51.21,89.69-172.6A4.53,4.53,0,0,0,2681.27,1128.62Z"/></g></g></svg>