<svg xmlns="http://www.w3.org/2000/svg" xmlns:xlink="http://www.w3.org/1999/xlink" viewBox="0 0 3710 3710"><defs><style>.cls-1,.cls-53{fill:none;}.cls-2{isolation:isolate;}.cls-3,.cls-32,.cls-6{fill:#fff;}.cls-4{fill:#bfc8d6;}.cls-5{fill:#d8dee8;}.cls-32,.cls-6{mix-blend-mode:soft-light;}.cls-6{opacity:0.48;}.cls-7{fill:url(#linear-gradient);}.cls-8{opacity:0.75;}.cls-9{clip-path:url(#clip-path);}.cls-10{fill:#a37b54;}.cls-11{fill:url(#linear-gradient-2);}.cls-12,.cls-15,.cls-24,.cls-28,.cls-48{mix-blend-mode:multiply;}.cls-12,.cls-15,.cls-32,.cls-42,.cls-48{opacity:0.3;}.cls-12{fill:url(#linear-gradient-3);}.cls-13{fill:url(#linear-gradient-4);}.cls-14{fill:#f1b71c;}.cls-15{fill:url(#linear-gradient-5);}.cls-16{fill:#8e6442;}.cls-17,.cls-42{fill:#2c3035;}.cls-18{fill:url(#linear-gradient-6);}.cls-19{clip-path:url(#clip-path-2);}.cls-20{fill:#f4cf98;}.cls-21{fill:url(#linear-gradient-7);}.cls-22{fill:url(#linear-gradient-8);}.cls-23{fill:url(#linear-gradient-9);}.cls-24{opacity:0.25;fill:url(#linear-gradient-10);}.cls-25{fill:#3374ba;}.cls-26{fill:#c12525;}.cls-27{fill:#d94343;}.cls-28{opacity:0.4;fill:url(#linear-gradient-11);}.cls-29{fill:url(#linear-gradient-12);}.cls-30{fill:url(#linear-gradient-13);}.cls-31{fill:url(#linear-gradient-14);}.cls-33{fill:url(#linear-gradient-15);}.cls-34{fill:url(#linear-gradient-16);}.cls-35{fill:#7cc2eb;}.cls-36{opacity:0.2;}.cls-37{fill:url(#linear-gradient-17);}.cls-38{fill:url(#linear-gradient-18);}.cls-39{fill:url(#linear-gradient-19);}.cls-40{clip-path:url(#clip-path-3);}.cls-41{fill:#83492a;}.cls-43{fill:url(#linear-gradient-20);}.cls-44{fill:url(#linear-gradient-21);}.cls-45{fill:url(#linear-gradient-22);}.cls-46{fill:url(#linear-gradient-23);}.cls-47{fill:url(#linear-gradient-24);}.cls-48{fill:url(#linear-gradient-25);}.cls-49{fill:url(#linear-gradient-26);}.cls-50{fill:#723b22;}.cls-51{fill:url(#linear-gradient-27);}.cls-52{fill:url(#linear-gradient-28);}.cls-53{stroke:#fff;stroke-miterlimit:10;stroke-width:20px;}</style><linearGradient id="linear-gradient" x1="355.58" y1="3089.2" x2="1908.04" y2="3089.2" gradientUnits="userSpaceOnUse"><stop offset="0.49" stop-color="#ebeff2"/><stop offset="1" stop-color="#fff"/></linearGradient><clipPath id="clip-path"><polygon class="cls-1" points="532.91 3020.91 1275.4 2968.35 1615.04 2722.02 1627.61 2289.07 1136.47 2016.39 1052.18 1758.47 620.85 1835.33 384.1 2726.86 532.91 3020.91"/></clipPath><linearGradient id="linear-gradient-2" x1="2268.45" y1="3125.37" x2="2417.47" y2="3887.28" gradientTransform="matrix(-1, 0, 0, 1, 3370.03, 0)" gradientUnits="userSpaceOnUse"><stop offset="0" stop-color="#311944"/><stop offset="1" stop-color="#893976"/></linearGradient><linearGradient id="linear-gradient-3" x1="-930.62" y1="3237.51" x2="-706" y2="3237.51" gradientTransform="matrix(-1, 0.08, 0.08, 1, 9.1, 65.44)" xlink:href="#linear-gradient-2"/><linearGradient id="linear-gradient-4" x1="-803.81" y1="3242.67" x2="-462.84" y2="3242.67" gradientTransform="matrix(-1, 0.08, 0.08, 1, 9.1, 65.44)" xlink:href="#linear-gradient-2"/><linearGradient id="linear-gradient-5" x1="-118.51" y1="3599.02" x2="-879.52" y2="2506.48" gradientTransform="matrix(-1, 0.08, 0.08, 1, 9.1, 65.44)" gradientUnits="userSpaceOnUse"><stop offset="0" stop-color="#ffc444"/><stop offset="1" stop-color="#f36f56"/></linearGradient><linearGradient id="linear-gradient-6" x1="2421.14" y1="2339.84" x2="3973.6" y2="2339.84" gradientTransform="matrix(-1, 0, 0, 1, 5652.62, 0)" xlink:href="#linear-gradient"/><clipPath id="clip-path-2"><path class="cls-1" d="M2347.49,2219.8l815.67,59.83a24.59,24.59,0,0,0,26.39-24.15l.24-15.25,174.85-75.44-145.91-251.94,40.85-254.19-424.73-70.58-133.41-216.31H2218.12V1765H1975v423.1l252.54,99.7Z"/></clipPath><linearGradient id="linear-gradient-7" x1="2381.19" y1="3660.82" x2="2464.64" y2="3660.82" gradientTransform="matrix(1, -0.05, 0.05, 1, -99, 20.4)" gradientUnits="userSpaceOnUse"><stop offset="0" stop-color="#aa80f9"/><stop offset="1" stop-color="#6165d7"/></linearGradient><linearGradient id="linear-gradient-8" x1="2540.53" y1="3685.09" x2="2623.99" y2="3685.09" xlink:href="#linear-gradient-7"/><linearGradient id="linear-gradient-9" x1="2244.72" y1="3060.73" x2="2752.07" y2="3060.73" gradientTransform="matrix(1, -0.05, 0.05, 1, -99, 20.4)" gradientUnits="userSpaceOnUse"><stop offset="0" stop-color="#444b8c"/><stop offset="1" stop-color="#26264f"/></linearGradient><linearGradient id="linear-gradient-10" x1="2335.75" y1="2843.43" x2="2825.83" y2="2843.43" gradientTransform="translate(145.43 -76.94) rotate(3.96)" xlink:href="#linear-gradient-9"/><linearGradient id="linear-gradient-11" x1="2522.2" y1="1886.12" x2="2534.64" y2="1554.65" gradientTransform="translate(6.81)" xlink:href="#linear-gradient-5"/><linearGradient id="linear-gradient-12" x1="4037.11" y1="2136.92" x2="3874.08" y2="2013.28" gradientTransform="matrix(-1, 0, 0, 1, 6065.85, 0)" gradientUnits="userSpaceOnUse"><stop offset="0" stop-color="#26264f"/><stop offset="1" stop-color="#444b8c"/></linearGradient><linearGradient id="linear-gradient-13" x1="-3201.42" y1="2355.19" x2="-3565.42" y2="2548.92" gradientTransform="matrix(0.99, 0.1, -0.1, 0.99, 5716.16, -26.87)" xlink:href="#linear-gradient-12"/><linearGradient id="linear-gradient-14" x1="2057.17" y1="1878.81" x2="2154.88" y2="1878.81" gradientTransform="matrix(1, 0, 0, 1, 0, 0)" xlink:href="#linear-gradient-7"/><linearGradient id="linear-gradient-15" x1="4034.57" y1="332.68" x2="4398.97" y2="1008.53" gradientTransform="matrix(-1, 0, 0, 1, 6079.74, 0)" xlink:href="#linear-gradient-2"/><linearGradient id="linear-gradient-16" x1="4053.36" y1="312.75" x2="4417.76" y2="988.6" gradientTransform="matrix(-1, 0, 0, 1, 6079.74, 0)" gradientUnits="userSpaceOnUse"><stop offset="0" stop-color="#ff9085"/><stop offset="1" stop-color="#fb6fbb"/></linearGradient><linearGradient id="linear-gradient-17" x1="3002.42" y1="1026.53" x2="3366.82" y2="1702.38" gradientTransform="matrix(-1, 0, 0, 1, 6079.74, 0)" xlink:href="#linear-gradient-2"/><linearGradient id="linear-gradient-18" x1="3021.21" y1="1006.6" x2="3385.61" y2="1682.45" xlink:href="#linear-gradient-16"/><linearGradient id="linear-gradient-19" x1="493.42" y1="1493.4" x2="2045.88" y2="1493.4" xlink:href="#linear-gradient"/><clipPath id="clip-path-3"><polygon class="cls-1" points="670.75 1425.11 1541.06 1364.4 1824.31 1245.71 2087.18 903.66 1128.51 164.43 344.45 677.88 379.96 1490.26 670.75 1425.11"/></clipPath><linearGradient id="linear-gradient-20" x1="1599.75" y1="2594.24" x2="1709.17" y2="2594.24" gradientTransform="matrix(-1, 0.09, 0.09, 1, 2456.55, -160.45)" xlink:href="#linear-gradient-9"/><linearGradient id="linear-gradient-21" x1="1186.6" y1="2555.09" x2="1236.45" y2="2451.9" gradientTransform="matrix(-1, 0.07, 0.07, 1, 2040.62, -60.67)" xlink:href="#linear-gradient-5"/><linearGradient id="linear-gradient-22" x1="1071.71" y1="2597.86" x2="1188.3" y2="2597.86" gradientTransform="matrix(-0.98, 0.21, 0.21, 0.98, 1968.05, -210.66)" xlink:href="#linear-gradient-9"/><linearGradient id="linear-gradient-23" x1="955.13" y1="2586.75" x2="1006.13" y2="2481.18" gradientTransform="matrix(-0.99, 0.15, 0.15, 0.99, 1974.58, -128.67)" xlink:href="#linear-gradient-5"/><linearGradient id="linear-gradient-24" x1="1814.74" y1="2280.42" x2="1491.93" y2="1552.74" gradientTransform="translate(-237.58 -19.3) rotate(3.06)" xlink:href="#linear-gradient-2"/><linearGradient id="linear-gradient-25" x1="1766.41" y1="2301.53" x2="1443.7" y2="1574.08" gradientTransform="translate(-237.58 -19.3) rotate(3.06)" xlink:href="#linear-gradient-2"/><linearGradient id="linear-gradient-26" x1="1276.87" y1="2390.8" x2="955.13" y2="1665.52" gradientTransform="translate(-160.89 92.99) rotate(-3.98)" xlink:href="#linear-gradient-2"/><linearGradient id="linear-gradient-27" x1="4444.25" y1="1744.69" x2="4808.65" y2="2420.54" gradientTransform="matrix(-1, 0, 0, 1, 6079.74, 0)" xlink:href="#linear-gradient-2"/><linearGradient id="linear-gradient-28" x1="4463.04" y1="1724.75" x2="4827.43" y2="2400.6" xlink:href="#linear-gradient-16"/></defs><g class="cls-2"><g id="Illustration"><path class="cls-3" d="M2955.53,971c-44-60.21-420.61-558.17-1031.09-533.91-30.51,1.21-625.89,32.65-845.49,423-162.45,288.74,9.53,544.93-188.64,741.66-172.68,171.41-384.89,58-491,196.57-161.64,211.15,95.77,781.41,491.27,1099.44,408.38,328.39,1189.66,569.31,1796.9,131.18C3369.24,2537,3362.33,1527.8,2955.53,971Z"/><path class="cls-4" d="M1908,3077.56,355.58,3063.91v40.37c0,11,6.77,20.28,15.94,21.94l439,79.51a59.86,59.86,0,0,0,15.75.74l1064.91-90.65c9.51-.8,16.87-10.15,16.87-21.41Z"/><path class="cls-4" d="M1344.66,3012.11l-973,73.86c-17.42,1.32-31.57-12.72-31.57-31.37V2307.44c0-18.65,14.15-33.76,31.57-33.76h973c14.35,0,25.94,13.66,25.94,30.52v675.41C1370.6,2996.47,1359,3011,1344.66,3012.11Z"/><path class="cls-3" d="M1360.18,3012.11l-973,73.86c-17.41,1.32-31.57-12.72-31.57-31.37V2307.44c0-18.65,14.16-33.76,31.57-33.76h973c14.34,0,25.94,13.66,25.94,30.52v675.41C1386.12,2996.47,1374.52,3011,1360.18,3012.11Z"/><path class="cls-5" d="M1329.86,2964.49l-906.27,64.16c-14.17,1-25.68-10.53-25.68-25.75V2348.76c0-15.22,11.51-27.61,25.68-27.68l906.27-4c11.84-.06,21.41,11.14,21.41,25v595.8C1351.27,2951.73,1341.7,2963.65,1329.86,2964.49Z"/><path class="cls-3" d="M908,2294.11c0,6.94-5,12.59-11.19,12.61s-11.22-5.61-11.22-12.56,5-12.61,11.22-12.61S908,2287.17,908,2294.11Z"/><path class="cls-6" d="M1125.74,2807.19c-75-43.35-134,11.58-190.91-42.62-34.51-32.86-17.57-57.36-60-106.46-47-54.39-77.65-36.11-124.92-85.05-59.76-61.9-29.87-110-81.35-154.48-62.45-53.91-129.8-4-189.25-55.71-25.64-22.3-39.71-54.72-47.06-89.19H374.05c-10.19,0-18.47,8.87-18.47,19.82V3068c0,10.94,8.28,19.18,18.47,18.41l991.68-75.61c4.86-.37,9.18-3.42,12-7.85-72.6-2.84-117.19-29-145.7-56C1176.21,2894.08,1185.88,2842,1125.74,2807.19Z"/><path class="cls-7" d="M1399,3008.76,355.58,3086.5l454.93,82.39a59.45,59.45,0,0,0,15.75.75L1908,3077.56l-492.48-68.27A78.14,78.14,0,0,0,1399,3008.76Z"/><polygon class="cls-5" points="507.83 3088.46 1376.47 3022.77 1645.31 3059.74 784.15 3129.95 507.83 3088.46"/><g class="cls-8"><polygon class="cls-3" points="582.81 2372.45 483.01 2372.8 483.01 2340.5 582.81 2340.5 582.81 2372.45"/><polygon class="cls-3" points="1105.69 2370.62 646.2 2372.23 646.2 2340.5 1105.69 2340.5 1105.69 2370.62"/><polygon class="cls-3" points="742.52 2425.51 646.2 2426.42 646.2 2394.69 742.52 2394.12 742.52 2425.51"/><polygon class="cls-3" points="1247.82 2420.73 803.73 2424.93 803.73 2393.75 1247.82 2391.11 1247.82 2420.73"/><polygon class="cls-3" points="742.52 2479.13 646.2 2480.61 646.2 2448.89 742.52 2447.74 742.52 2479.13"/><polygon class="cls-3" points="1247.82 2471.34 803.73 2478.18 803.73 2447.01 1247.82 2441.71 1247.82 2471.34"/><polygon class="cls-3" points="582.81 2536.16 483.01 2538.29 483.01 2506 582.81 2504.21 582.81 2536.16"/><polygon class="cls-3" points="1105.69 2524.98 646.2 2534.8 646.2 2503.08 1105.69 2494.86 1105.69 2524.98"/><polygon class="cls-3" points="742.52 2586.36 646.2 2589 646.2 2557.27 742.52 2554.97 742.52 2586.36"/><polygon class="cls-3" points="1247.82 2572.55 803.73 2584.69 803.73 2553.51 1247.82 2542.92 1247.82 2572.55"/><polygon class="cls-3" points="742.52 2639.98 646.2 2643.19 646.2 2611.46 742.52 2608.59 742.52 2639.98"/><polygon class="cls-3" points="1247.82 2623.15 803.73 2637.94 803.73 2606.77 1247.82 2593.53 1247.82 2623.15"/><polygon class="cls-3" points="742.52 2693.6 646.2 2697.38 646.2 2665.66 742.52 2662.21 742.52 2693.6"/><polygon class="cls-3" points="1247.82 2673.76 803.73 2691.2 803.73 2660.02 1247.82 2644.13 1247.82 2673.76"/><polygon class="cls-3" points="898.2 2740.18 805.2 2744.38 805.2 2713.21 898.2 2709.33 898.2 2740.18"/><polygon class="cls-3" points="1315.63 2721.29 957.31 2737.5 957.31 2706.86 1315.63 2691.9 1315.63 2721.29"/><polygon class="cls-3" points="582.81 2809.01 483.01 2814.12 483.01 2781.83 582.81 2777.07 582.81 2809.01"/><polygon class="cls-3" points="1105.69 2782.24 646.2 2805.77 646.2 2774.04 1105.69 2752.12 1105.69 2782.24"/><polygon class="cls-3" points="742.52 2854.45 646.2 2859.96 646.2 2828.24 742.52 2823.07 742.52 2854.45"/><polygon class="cls-3" points="1247.82 2825.57 803.73 2850.95 803.73 2819.78 1247.82 2795.94 1247.82 2825.57"/><polygon class="cls-3" points="742.52 2908.07 646.2 2914.15 646.2 2882.43 742.52 2876.68 742.52 2908.07"/><polygon class="cls-3" points="1247.82 2876.17 803.73 2904.21 803.73 2873.03 1247.82 2846.55 1247.82 2876.17"/><polygon class="cls-3" points="582.81 2972.72 483.01 2979.62 483.01 2947.32 582.81 2940.78 582.81 2972.72"/><polygon class="cls-3" points="1105.69 2936.6 646.2 2968.35 646.2 2936.62 1105.69 2906.48 1105.69 2936.6"/></g><g class="cls-9"><path class="cls-10" d="M1559.93,2414.87s-15.34-53.19-4.46-68.33,31.44-68.33,33.54-55.49-10.28,44-10.28,44,38.52,13.3,26.14,35.31-18,32.56-15.86,39S1562.68,2419.46,1559.93,2414.87Z"/><path class="cls-11" d="M1066.08,3510.86h132.71c-.23-158.66-6.15-308.74-15.92-449.24l-46.63-94.53-172.77-18c-10,106.73-1.59,194.7,10.92,262.05C1002,3359.64,1050,3410.69,1066.08,3510.86Z"/><path class="cls-12" d="M1066.08,3510.86h68.69c-.67-2.38-1.38-4.75-2.14-7.14-23.56-74.31-60.71-90.66-62.71-153.71-2-63.72,34.75-84.05,48.65-147.51,9.83-44.86-5.81-146.27-61.79-243.7l-93.31-9.74c-10,106.73-1.59,194.7,10.92,262.05C1002,3359.64,1050,3410.69,1066.08,3510.86Z"/><path class="cls-13" d="M797.43,3419.7c2.78,32,5.25,60.93,6.52,91.16H980.16c19.71-172.09,44.52-334.69,72.46-487-13.39-6.21-189.89-86.05-257.74-15.86-25.75,26.65-25.38,72.3-23.59,162.51C773.2,3266.6,786.48,3294,797.43,3419.7Z"/><path class="cls-14" d="M1552.88,2400.9l46.15-3.22c36.29,146.64,10.26,288.9-71.64,341.21-128,81.74-365.79-72.26-417.32-239.93-22.62-73.6-17.47-179.81,27.74-200.45,12.55-5.73,32-6.62,74.21,17.07,126,70.74,129.31,204.44,193.36,215.76C1433.86,2536.37,1479.85,2518.22,1552.88,2400.9Z"/><path class="cls-14" d="M1200.57,3093.89c22.17-36.78-5.67-72.24-12-141.91-7.18-79,23.24-92.11,53.32-223,20-87,39.21-170.58,16.29-268.38-11-46.87-29.62-126.37-95.41-164.76-34-19.82-80.31-17.84-171.64-13.06-112.94,5.91-169.4,8.86-211.52,31-6.16,3.25-134.28,72.94-143.1,186.53-9,115.62,116.93,131.16,133.73,285.33,7.53,69.21-5.9,175.66-14.62,244.7-8.36,66.3-14.12,83.27-1,103.34,31.53,48.38,128.07,34.59,321.14,7C1151.44,3130,1184,3121.33,1200.57,3093.89Z"/><path class="cls-15" d="M906.82,2760.9c-8.17,30-37.53,52.49-58,125.59-4.41,15.78-35.84,128.16,4.93,155.82,23.55,16,44.69-14.29,101.84-18.25,99-6.85,146.21,76.39,210.9,53.66,11.23-3.95,26-12.36,40.84-31.68,3,17.41,2.44,32.53-6.79,47.85-16.53,27.44-49.13,36.06-124.86,46.87-193.07,27.57-289.61,41.36-321.14-7-13.08-20.07-7.32-37,1-103.34,8.72-69,22.15-175.49,14.62-244.7C753.43,2631.53,627.52,2616,636.5,2500.37c2.4-30.9,13.77-58.43,29-82.38C825.2,2482.62,932.48,2666.47,906.82,2760.9Z"/><path class="cls-10" d="M705.08,2988.32l31.95,20.4c5.74-6.62,19-20,39.77-24.55,23.36-5.14,50.19,2.23,50.81,9.69.5,6-15.83,12-18.35,12.93-20.39,7.52-35.52,1.27-43.76,9.47-2.92,2.9-6.55,8.29-14.91,13.29a45.18,45.18,0,0,1-5.7,2.94c-13.61,5.29-36.95-18.4-39-20.47Z"/><path class="cls-14" d="M799.49,2569.19c23.12-55.36,39.13-140.13,2.62-266-240.59,94.8-363.29,319.54-315.38,497.69,39.49,146.87,183.18,218.4,215.23,233.45l22.38-50.92c-37.15-41.37-79-102.53-73.08-172.32C659.46,2714.31,752.69,2681.29,799.49,2569.19Z"/><path class="cls-16" d="M985.21,2168.91s-1.9,42.09-15,73.6c-11.81,28.49-73.91,46.4-86.49,52.75s23.58,24.95,59.9,28.6,140.06-4.6,158.75-18.37-15-12.73-41-22.25-40.91-60.22-36.34-83.23S985.21,2168.91,985.21,2168.91Z"/><path class="cls-17" d="M1036.21,2090.58c51.53-50.63,58.72-56.54,64.34-74,22.52-70.24-32-166.43-103.42-190.12-3.72-1.22-51.64-16.57-69.93,4.23-15.53,17.65,7.32,42-3.55,76.06-10.17,31.86-37.79,34.25-89,76-42.17,34.4-68.37,55.79-74.41,85.88-12.47,62,62.62,151.92,129.09,149.48C913.26,2217.21,919.77,2205,1036.21,2090.58Z"/><path class="cls-10" d="M895.86,2227.67s54.78,62,138.22,41.51c74.72-18.35,55.65-189.82,1-217.22-18.24-9.13-51.38-8.38-76.31,3.63-14.72,7.1-18.82,14.47-43.1,25.6-22.39,10.26-29.49,8.84-35.51,16.06-7.54,9-10.78,28.48,12.83,75.41-17-12-35.32-14.57-46.56-6.6a26.24,26.24,0,0,0-8.32,11.59C831,2198.9,853,2220.48,895.86,2227.67Z"/></g><path class="cls-4" d="M1679,2328.2l1552.46-13.65v40.37c0,11-6.77,20.28-15.94,21.94l-439,79.5a59.43,59.43,0,0,1-15.75.75l-1064.91-90.65c-9.51-.81-16.87-10.15-16.87-21.41Z"/><path class="cls-4" d="M2242.39,2262.75l973,73.86c17.41,1.32,31.57-12.72,31.57-31.37V1558.08c0-18.65-14.16-33.77-31.57-33.77h-973c-14.34,0-25.94,13.67-25.94,30.53v675.41C2216.45,2247.11,2228.05,2261.66,2242.39,2262.75Z"/><path class="cls-3" d="M2226.88,2262.75l973,73.86c17.41,1.32,31.56-12.72,31.56-31.37V1558.08c0-18.65-14.15-33.77-31.56-33.77h-973c-14.35,0-25.94,13.67-25.94,30.53v675.41C2200.94,2247.11,2212.53,2261.66,2226.88,2262.75Z"/><path class="cls-5" d="M2257.19,2215.13l906.27,64.16c14.17,1,25.69-10.53,25.69-25.75V1599.4c0-15.22-11.52-27.61-25.69-27.68l-906.27-4c-11.83,0-21.4,11.15-21.4,25v595.8C2235.79,2202.37,2245.36,2214.29,2257.19,2215.13Z"/><path class="cls-3" d="M2679,1544.75c0,6.94,5,12.59,11.19,12.61s11.22-5.61,11.22-12.56-5-12.61-11.22-12.61S2679,1537.81,2679,1544.75Z"/><path class="cls-6" d="M2461.31,2057.83c75-43.35,134,11.58,190.92-42.62,34.51-32.86,17.57-57.36,60-106.46,47-54.39,77.65-36.11,124.91-85,59.77-61.9,29.88-110,81.36-154.48,62.45-53.91,129.8-4,189.25-55.71,25.64-22.3,39.71-54.72,47.06-89.2H3213c10.2,0,18.47,8.88,18.47,19.83v774.48c0,11-8.27,19.19-18.47,18.42l-991.67-75.61c-4.87-.37-9.18-3.42-11.95-7.85,72.59-2.84,117.19-29,145.7-56C2410.85,2144.72,2401.17,2092.59,2461.31,2057.83Z"/><path class="cls-18" d="M2188.1,2259.4l1043.37,77.74-454.93,82.39a59.43,59.43,0,0,1-15.75.75L1679,2328.2l492.49-68.27A78.12,78.12,0,0,1,2188.1,2259.4Z"/><polygon class="cls-5" points="3079.23 2339.1 2210.59 2273.41 1941.75 2310.38 2802.91 2380.59 3079.23 2339.1"/><g class="cls-8"><polygon class="cls-3" points="3004.25 1623.09 3104.04 1623.44 3104.04 1591.14 3004.25 1591.14 3004.25 1623.09"/><polygon class="cls-3" points="2481.36 1621.26 2940.86 1622.87 2940.86 1591.14 2481.36 1591.14 2481.36 1621.26"/><polygon class="cls-3" points="2844.53 1676.15 2940.86 1677.06 2940.86 1645.33 2844.53 1644.76 2844.53 1676.15"/><polygon class="cls-3" points="2339.24 1671.37 2783.33 1675.57 2783.33 1644.39 2339.24 1641.75 2339.24 1671.37"/><polygon class="cls-3" points="2844.53 1729.77 2940.86 1731.25 2940.86 1699.53 2844.53 1698.38 2844.53 1729.77"/><polygon class="cls-3" points="2339.24 1721.98 2783.33 1728.82 2783.33 1697.65 2339.24 1692.35 2339.24 1721.98"/><polygon class="cls-3" points="3004.25 1786.8 3104.04 1788.93 3104.04 1756.64 3004.25 1754.85 3004.25 1786.8"/><polygon class="cls-3" points="2481.36 1775.62 2940.86 1785.44 2940.86 1753.72 2481.36 1745.5 2481.36 1775.62"/><polygon class="cls-3" points="2844.53 1837 2940.86 1839.64 2940.86 1807.91 2844.53 1805.61 2844.53 1837"/><polygon class="cls-3" points="2339.24 1823.18 2783.33 1835.33 2783.33 1804.15 2339.24 1793.56 2339.24 1823.18"/><polygon class="cls-3" points="2844.53 1890.62 2940.86 1893.83 2940.86 1862.1 2844.53 1859.23 2844.53 1890.62"/><polygon class="cls-3" points="2339.24 1873.79 2783.33 1888.58 2783.33 1857.41 2339.24 1844.16 2339.24 1873.79"/><polygon class="cls-3" points="2844.53 1944.24 2940.86 1948.02 2940.86 1916.3 2844.53 1912.85 2844.53 1944.24"/><polygon class="cls-3" points="2339.24 1924.39 2783.33 1941.84 2783.33 1910.66 2339.24 1894.77 2339.24 1924.39"/><polygon class="cls-3" points="2688.86 1990.82 2781.86 1995.02 2781.86 1963.85 2688.86 1959.97 2688.86 1990.82"/><polygon class="cls-3" points="2271.43 1971.93 2629.75 1988.14 2629.75 1957.5 2271.43 1942.54 2271.43 1971.93"/><polygon class="cls-3" points="3004.25 2059.65 3104.04 2064.76 3104.04 2032.47 3004.25 2027.71 3004.25 2059.65"/><polygon class="cls-3" points="2481.36 2032.88 2940.86 2056.41 2940.86 2024.68 2481.36 2002.76 2481.36 2032.88"/><polygon class="cls-3" points="2844.53 2105.09 2940.86 2110.6 2940.86 2078.87 2844.53 2073.7 2844.53 2105.09"/><polygon class="cls-3" points="2339.24 2076.21 2783.33 2101.59 2783.33 2070.42 2339.24 2046.58 2339.24 2076.21"/><polygon class="cls-3" points="2844.53 2158.71 2940.86 2164.79 2940.86 2133.07 2844.53 2127.32 2844.53 2158.71"/><polygon class="cls-3" points="2339.24 2126.81 2783.33 2154.85 2783.33 2123.67 2339.24 2097.19 2339.24 2126.81"/><polygon class="cls-3" points="3004.25 2223.36 3104.04 2230.26 3104.04 2197.97 3004.25 2191.42 3004.25 2223.36"/><polygon class="cls-3" points="2481.36 2187.24 2940.86 2218.99 2940.86 2187.26 2481.36 2157.12 2481.36 2187.24"/></g><g class="cls-19"><path class="cls-20" d="M3197.55,2140.75a123.33,123.33,0,0,0,44.59,8.12c34.26-.33,44-15.58,70-9.39,20.21,4.82,42.76,20.86,42.77,20.86h0c-.13.06-26.56,15.94-52.84,23.49-20,5.76-36.31,5.62-48.05,5.43-26.11-.42-53.14-.85-61-16.59C3191.53,2169.71,3187.48,2159.66,3197.55,2140.75Z"/><path class="cls-21" d="M2533.22,3516.7a112.68,112.68,0,0,1,16.48,37.06,110.37,110.37,0,0,1,2.87,19.46c-3.55,7.6-21.52,34.63-50,45.15-17.59,6.51-49.51-4.17-19.5-30.36s34.2-32,15.85-83.73c-4.73-13.3-4.54-18.48-2.54-19.79C2501.1,3481.43,2518.8,3500.16,2533.22,3516.7Z"/><path class="cls-22" d="M2693.61,3532.72a112.72,112.72,0,0,1,16.48,37.05,111.31,111.31,0,0,1,2.87,19.46c-3.55,7.6-21.52,34.63-49.95,45.15-17.59,6.51-49.52-4.16-19.5-30.36s34.2-32,15.85-83.73c-4.73-13.3-4.54-18.47-2.54-19.79C2661.49,3497.44,2679.19,3516.17,2693.61,3532.72Z"/><path class="cls-23" d="M2750.79,2419.59l40.47,202.83A1934.17,1934.17,0,0,0,2732,2834.78c-60.25,275.77-50.47,521.52-23.71,708.37l-42.77,23.71a1775.22,1775.22,0,0,1-129.07-428.29c-36.3-217.36-22.53-388.73-32.58-389-9.64-.24-31.24,157-25.19,335.41a1800.32,1800.32,0,0,0,72.83,448.36l-53.89,12c-73.07-134.4-150.13-318.83-183.64-545.11-23.26-157.15-51.52-366,46.48-585.81,9.79-21.95,44.89-71.14,51.37-83.22C2533.47,2350.18,2629.14,2400.6,2750.79,2419.59Z"/><path class="cls-24" d="M2732,2834.78a1934.17,1934.17,0,0,1,59.27-212.36l-40.47-202.83c-121.65-19-217.32-69.4-339-88.4-6.48,12.08-41.58,61.26-51.37,83.22-33,74.1-51.68,146.94-61,217,233.73-10.55,303.06,35.82,323.23,80.07,32.1,70.43-55.62,146-18.77,289.47,11.09,43.16,26.15,64.09,29.7,118.51,4.65,71.41-18.44,79.14-19.61,152-1.28,79.7,25.17,145.1,46.88,198.77a692.53,692.53,0,0,0,37.58,78.42l9.87-5.47C2681.52,3356.3,2671.74,3110.55,2732,2834.78Z"/><path class="cls-25" d="M2544,1426.29c10.46,11.32-1.48,29.21,2,89.47a425.11,425.11,0,0,0,9.17,66.54c2.05,14.73,4.31,28.35,6.72,40.34,1.76,8.79,3.39,15.64,5.43,22.9a285.38,285.38,0,0,0,14.25,39.36,1.75,1.75,0,0,1-.74,2.25l-.14.07a1.76,1.76,0,0,1-2.33-.89,290.11,290.11,0,0,1-14.43-39.84c-2.06-7.34-3.71-14.27-5.49-23.16-1.27-6.32-2.5-13.12-3.67-20.25a189.76,189.76,0,0,0,11.36,67.22c29.17,82.52-30.75,145-82.29,152.64-59.44,8.77-104.82-34.35-118.94-48.53-56.92-57.18-77.17-157.88-37.43-237.18C2379.59,1433.34,2518.4,1398.53,2544,1426.29Z"/><path class="cls-26" d="M2020.43,2068.54c4.57,28.1,23.33,123.13,96.17,162.73,120,65.23,330.67-54.72,355.49-211.61,19-119.91-72.47-249-123-241.6-63.44,9.28-34.79,229.64-159.73,293.22C2132.18,2100.38,2065.78,2085,2020.43,2068.54Z"/><path class="cls-25" d="M2401.49,1523.41c1.58-9.72,9.14-49.49,41.94-77.33,62.23-52.82,173.42-27.14,240.58,20.51,70.27,49.86,47.54,91.75,117.36,148,75.84,61.06,121,26.28,223.44,82.24,40.29,22,148.85,81.33,166.91,189.54,15.61,93.5-41.19,194.65-118.86,239.45-133,76.69-319.1-16.38-412.07-110.08-89.18-89.86-38.35-119.39-170.31-297.12C2442.77,1654.32,2389.73,1596.08,2401.49,1523.41Z"/><path class="cls-27" d="M3413.76,2477.73c-12.28,24.65-84.88-21.32-155,21.36-64.72,39.4-44.22,103.73-107.11,154-72.12,57.66-179.72,37.26-226.8,28.32-102.13-19.33-105-60.13-223.7-91.36-93.48-24.6-173.87-20.88-211-18.9-152.65,8.22-206.06,59-233.13,31.52a28.85,28.85,0,0,1-8.16-18.18c-1.84-17.54,7.87-41.42,22.62-70.37,42.53-83.92,126.83-210.27,92.47-348.85-18.76-75.5-58.4-108.76-59.7-205.29-1-76.75,23.59-140,44.9-181.94a517.09,517.09,0,0,1,175.66-41.71c76.71-4.3,130.22-9.38,167,22,60.37,51.67,26.48,137.52,43.64,248.65a370.56,370.56,0,0,0,32,104.16c9.77,20.54,76.57,156.13,198.48,182.76,68.92,15,86.95-19.67,166.95-15.75C3281.12,2285.45,3407.24,2414,3415,2465c.05,0,.05,0,0,.09C3415.79,2470.14,3415.41,2474.39,3413.76,2477.73Z"/><path class="cls-20" d="M2516.23,1629.38c-9.36,25.28-16.25,56.4-1.11,75.23,9.23,11.47,23.09,17,36.76,22.07,32.28,12.07,45.89,4.4,52.91,13,15.45,19-14.27,100.63-75.18,113.77-60.63,13.07-123-48-116.74-77.16,5.69-26.33,66.89-24.6,74.34-57.9,3.76-16.76-8.05-33.72-18-45l-7.16,1.38Z"/><path class="cls-28" d="M2604.79,1739.7c-7-8.62-20.63-1-52.91-13-13.67-5.11-27.53-10.6-36.76-22.07-15.13-18.83-8.25-49.95,1.11-75.23L2462,1674.79l7.16-1.38c7.92,8.95,16.87,21.49,18.4,34.67a50.63,50.63,0,0,1,11.31,8.19,134.43,134.43,0,0,0-7.46,43.23c-.07,15.28-.11,26.62,7.46,36.54,8.27,10.83,20.77,13.63,31.7,16.08,24.28,5.44,45.93.55,60-4.39C2607.89,1780.78,2613.47,1750.36,2604.79,1739.7Z"/><path class="cls-20" d="M2543.42,1682.6s-7,70.56-76.9,70.93c-86.1.45-95.65-226.73-74.71-239.71,24.27-15.06,45.51,21.81,102,9,23.79-5.42,44.36-36,56.42-3,13.72,37.52,2.13,103.94,2.13,103.94s20.46-16.87,23.6,3.43C2580.08,1653.67,2560.15,1670.27,2543.42,1682.6Z"/><path class="cls-25" d="M2409.87,1479.63c-25.42,25.92-39.44,76.22-21.82,101.51,25.31,36.32,100.18-1.6,130.8,42.83,13.42,19.48,12.65,46.52,19.61,46.08,5.76-.36,9.17-19.1,12.49-34.51,18.3-85,39.48-94.52,33-118.85C2570.86,1467.24,2462.07,1426.39,2409.87,1479.63Z"/><path class="cls-27" d="M2631.84,1837.13c-5.21-58.25-24.05-83.83-10.36-96.4,21.17-19.42,88.27,21.54,108.17,33.89,110.73,68.7,148.87,145.78,205.68,206.38,49.16,52.44,133.5,115.14,285.63,147l-16.8,71.4c-136,33.85-214.39,9-260.43-18.9-91.94-55.75-115.85-160.76-220.53-176.42-44.06-6.59-72.42,7.13-92.71-15.1C2605.73,1961.85,2639.55,1923.38,2631.84,1837.13Z"/><path class="cls-26" d="M3413.47,2475.26c-12.23,24.65-84.83-21.31-155,21.37-64.77,39.39-44.27,103.73-107.11,154-72.17,57.62-179.77,37.27-226.85,28.32-102.13-19.33-105-60.13-223.7-91.35-93.48-24.6-173.87-20.88-211-18.9-152.65,8.22-206.06,59-233.13,31.51a28.62,28.62,0,0,1-7.87-15.71c-3-17.49,6.62-41.71,21.5-71.29.39.34.73.63,1.12.92,11.6,9.95,25,17.74,40.36,21.51,89.28,21.55,139.55-117.41,272.52-124.47,86.38-4.54,103.93,52,226.85,50.41,57.76-.72,142.64-14.35,148-45.67,6.91-39.88-124.56-53.95-174.83-167-22-49.35-7.59-70.67-39.4-119.73-38.76-59.74-94.93-72.31-89.81-99.23,3.63-18.81,34.32-32.83,60.57-29.25a58.89,58.89,0,0,1,19.62,6.29,370.56,370.56,0,0,0,32,104.16c9.77,20.54,76.57,156.13,198.48,182.76,68.92,15,86.95-19.67,166.95-15.75C3281.12,2285.45,3407.24,2414,3415,2465c.05,0,.05,0,0,.09A19.21,19.21,0,0,1,3413.47,2475.26Z"/><path class="cls-29" d="M2003.27,1867.29,2237,1886.9a5.52,5.52,0,0,1,5,4.47l66.29,315c.95,4.5-5.14,15.92-9.49,15.48l-224.92-29.94a5.42,5.42,0,0,1-4.79-4.25l-77.44-306.92C1990.47,1876.15,1998.56,1866.9,2003.27,1867.29Z"/><path class="cls-30" d="M1998.36,1875.07l234.11,19.31a5.53,5.53,0,0,1,5,4.48l66.37,315.27c.95,4.51-3,9.25-7.36,8.81L2069,2200a5.4,5.4,0,0,1-4.8-4.25l-73.51-311.83A7.43,7.43,0,0,1,1998.36,1875.07Z"/><path class="cls-31" d="M2063,1889.84l-5.74-26a3.89,3.89,0,0,1,3.89-4.61l86,3.93a3,3,0,0,1,2.87,2.57l4.83,28.23a3.84,3.84,0,0,1-3.9,4.41l-85.12-6.1A3.07,3.07,0,0,1,2063,1889.84Z"/><path class="cls-32" d="M2174.5,2147.05c-8.4-51.79,20.68-85.12.65-125.37-28.5-57.25-110.25-35.22-128.77-82.16-5-12.69-5.67-31.37,7.35-59.89l-55.37-4.56a7.43,7.43,0,0,0-7.71,8.83l73.51,311.83a5.4,5.4,0,0,0,4.8,4.25l140.36,14.17C2187.41,2191.37,2177.91,2168.1,2174.5,2147.05Z"/><path class="cls-20" d="M2019.55,2091.53c-.53-3.9-16.23-43.15,15.7-58.85s14.68,27.79,14.66,42.94.35,49.17-15,40.27A30,30,0,0,1,2019.55,2091.53Z"/></g><path class="cls-33" d="M1679.66,518.14c0,119.89,116.72,217.37,262.86,217.73,148.58.36,270.87-99.48,270.87-223s-122.29-221-270.87-217.64C1796.38,298.46,1679.66,398.25,1679.66,518.14Z"/><path class="cls-25" d="M1679.66,518.14c0,119.89,116.72,217.37,262.86,217.73,148.58.36,270.87-99.48,270.87-223s-122.29-221-270.87-217.64C1796.38,298.46,1679.66,398.25,1679.66,518.14Z"/><path class="cls-25" d="M1829.93,702.07s-64,71.09-157.26,11.63l-18.79-19.93s94.66-48.23,96.85-89.38Z"/><path class="cls-34" d="M1660.87,498.2c0,119.89,116.72,217.37,262.86,217.73,148.58.37,270.87-99.48,270.87-223s-122.29-221-270.87-217.65C1777.59,278.52,1660.87,378.32,1660.87,498.2Z"/><path class="cls-35" d="M1660.87,498.2c0,119.89,116.72,217.37,262.86,217.73,148.58.37,270.87-99.48,270.87-223s-122.29-221-270.87-217.65C1777.59,278.52,1660.87,378.32,1660.87,498.2Z"/><path class="cls-35" d="M1811.15,682.14s-64.05,71.08-157.27,11.63c0,0,74.75-47.14,78.06-109.32Z"/><g class="cls-36"><path class="cls-25" d="M1859.19,659.85c32-65-.35-125.43,43-167.77,44.22-43.22,102-4.05,164.61-39.76,24.32-13.87,51.44-40.24,71.65-94.14,35.22,37,56.2,83.7,56.2,134.73,0,123.54-122.29,223.39-270.87,223a314.06,314.06,0,0,1-95.26-14.78A144.91,144.91,0,0,0,1859.19,659.85Z"/></g><circle class="cls-3" cx="1801.53" cy="495.56" r="35.74"/><circle class="cls-3" cx="1932.26" cy="495.56" r="35.74"/><circle class="cls-3" cx="2062.98" cy="495.56" r="35.74"/><path class="cls-37" d="M2711.81,1212c0,119.89,116.72,217.36,262.86,217.72,148.58.37,270.87-99.48,270.87-223s-122.29-221-270.87-217.65C2828.53,992.3,2711.81,1092.1,2711.81,1212Z"/><path class="cls-25" d="M2711.81,1212c0,119.89,116.72,217.36,262.86,217.72,148.58.37,270.87-99.48,270.87-223s-122.29-221-270.87-217.65C2828.53,992.3,2711.81,1092.1,2711.81,1212Z"/><path class="cls-25" d="M2862.09,1395.92S2798,1467,2704.82,1407.55L2686,1387.62s94.66-48.24,96.85-89.38Z"/><path class="cls-38" d="M2693,1192.05c0,119.89,116.72,217.37,262.86,217.73,148.59.37,270.87-99.48,270.87-223s-122.28-221-270.87-217.65C2809.74,972.37,2693,1072.16,2693,1192.05Z"/><path class="cls-35" d="M2693,1192.05c0,119.89,116.72,217.37,262.86,217.73,148.59.37,270.87-99.48,270.87-223s-122.28-221-270.87-217.65C2809.74,972.37,2693,1072.16,2693,1192.05Z"/><path class="cls-35" d="M2843.3,1376s-64.05,71.09-157.27,11.64c0,0,74.75-47.14,78.06-109.32Z"/><g class="cls-36"><path class="cls-25" d="M2891.34,1353.7c32-65-.35-125.43,43-167.77,44.21-43.22,102-4,164.6-39.76,24.32-13.87,51.44-40.24,71.65-94.14,35.22,37,56.2,83.7,56.2,134.73,0,123.54-122.28,223.39-270.87,223a314.06,314.06,0,0,1-95.26-14.78A144.53,144.53,0,0,0,2891.34,1353.7Z"/></g><path class="cls-4" d="M2045.88,1481.76,493.42,1468.11v40.38c0,11,6.77,20.27,15.94,21.93l439,79.51a59.86,59.86,0,0,0,15.75.74L2029,1520c9.51-.81,16.87-10.16,16.87-21.42Z"/><path class="cls-4" d="M1482.5,1416.31l-973,73.86c-17.42,1.32-31.57-12.72-31.57-31.37V711.64c0-18.64,14.15-33.76,31.57-33.76h973c14.35,0,25.94,13.66,25.94,30.52v675.42C1508.44,1400.67,1496.85,1415.22,1482.5,1416.31Z"/><path class="cls-3" d="M1498,1416.31l-973,73.86c-17.41,1.32-31.57-12.72-31.57-31.37V711.64c0-18.64,14.16-33.76,31.57-33.76h973c14.34,0,25.94,13.66,25.94,30.52v675.42C1524,1400.67,1512.36,1415.22,1498,1416.31Z"/><path class="cls-5" d="M1467.7,1368.69l-906.27,64.16c-14.17,1-25.68-10.53-25.68-25.75V753c0-15.23,11.51-27.62,25.68-27.68l906.27-4c11.84-.06,21.41,11.14,21.41,25v595.8C1489.11,1355.94,1479.54,1367.85,1467.7,1368.69Z"/><path class="cls-3" d="M1045.87,698.31c0,7-5,12.59-11.19,12.61s-11.22-5.6-11.22-12.56,5-12.6,11.22-12.61S1045.87,691.37,1045.87,698.31Z"/><path class="cls-6" d="M1263.58,1211.39c-75-43.35-134,11.58-190.91-42.62-34.51-32.86-17.57-57.36-60-106.46-47-54.39-77.65-36.11-124.92-85-59.76-61.89-29.87-110-81.35-154.48-62.45-53.91-129.8-4-189.25-55.71-25.64-22.3-39.71-54.72-47.06-89.19H511.89c-10.19,0-18.47,8.87-18.47,19.82v774.49c0,10.94,8.28,19.19,18.47,18.41L1503.57,1415c4.86-.37,9.18-3.42,12-7.85-72.6-2.84-117.19-29-145.7-56C1314.05,1298.28,1323.72,1246.15,1263.58,1211.39Z"/><path class="cls-39" d="M1536.8,1413,493.42,1490.7l454.93,82.39a59.45,59.45,0,0,0,15.75.75l1081.78-92.08-492.48-68.27A78.14,78.14,0,0,0,1536.8,1413Z"/><polygon class="cls-5" points="645.67 1492.66 1514.31 1426.97 1783.15 1463.94 921.99 1534.15 645.67 1492.66"/><g class="cls-8"><polygon class="cls-3" points="720.65 776.65 620.85 777 620.85 744.7 720.65 744.7 720.65 776.65"/><polygon class="cls-3" points="1243.53 774.82 784.04 776.43 784.04 744.7 1243.53 744.7 1243.53 774.82"/><polygon class="cls-3" points="880.36 829.71 784.04 830.62 784.04 798.9 880.36 798.32 880.36 829.71"/><polygon class="cls-3" points="1385.66 824.93 941.57 829.13 941.57 797.96 1385.66 795.31 1385.66 824.93"/><polygon class="cls-3" points="880.36 883.33 784.04 884.81 784.04 853.09 880.36 851.94 880.36 883.33"/><polygon class="cls-3" points="1385.66 875.54 941.57 882.38 941.57 851.21 1385.66 845.91 1385.66 875.54"/><polygon class="cls-3" points="720.65 940.36 620.85 942.5 620.85 910.2 720.65 908.41 720.65 940.36"/><polygon class="cls-3" points="1243.53 929.18 784.04 939.01 784.04 907.28 1243.53 899.06 1243.53 929.18"/><polygon class="cls-3" points="880.36 990.57 784.04 993.2 784.04 961.47 880.36 959.18 880.36 990.57"/><polygon class="cls-3" points="1385.66 976.75 941.57 988.89 941.57 957.72 1385.66 947.12 1385.66 976.75"/><polygon class="cls-3" points="880.36 1044.18 784.04 1047.39 784.04 1015.67 880.36 1012.79 880.36 1044.18"/><polygon class="cls-3" points="1385.66 1027.35 941.57 1042.14 941.57 1010.97 1385.66 997.73 1385.66 1027.35"/><polygon class="cls-3" points="880.36 1097.8 784.04 1101.58 784.04 1069.86 880.36 1066.41 880.36 1097.8"/><polygon class="cls-3" points="1385.66 1077.96 941.57 1095.4 941.57 1064.22 1385.66 1048.33 1385.66 1077.96"/><polygon class="cls-3" points="1036.04 1144.38 943.04 1148.58 943.04 1117.41 1036.04 1113.53 1036.04 1144.38"/><polygon class="cls-3" points="1453.47 1125.49 1095.15 1141.7 1095.15 1111.06 1453.47 1096.11 1453.47 1125.49"/><polygon class="cls-3" points="720.65 1213.21 620.85 1218.33 620.85 1186.03 720.65 1181.27 720.65 1213.21"/><polygon class="cls-3" points="1243.53 1186.44 784.04 1209.97 784.04 1178.24 1243.53 1156.32 1243.53 1186.44"/><polygon class="cls-3" points="880.36 1258.66 784.04 1264.16 784.04 1232.44 880.36 1227.27 880.36 1258.66"/><polygon class="cls-3" points="1385.66 1229.77 941.57 1255.16 941.57 1223.98 1385.66 1200.14 1385.66 1229.77"/><polygon class="cls-3" points="880.36 1312.27 784.04 1318.36 784.04 1286.63 880.36 1280.88 880.36 1312.27"/><polygon class="cls-3" points="1385.66 1280.38 941.57 1308.41 941.57 1277.23 1385.66 1250.75 1385.66 1280.38"/><polygon class="cls-3" points="720.65 1376.93 620.85 1383.82 620.85 1351.53 720.65 1344.98 720.65 1376.93"/><polygon class="cls-3" points="1243.53 1340.8 784.04 1372.55 784.04 1340.82 1243.53 1310.68 1243.53 1340.8"/></g><g class="cls-40"><path class="cls-41" d="M1878.75,951s15.46-19.15,44.44-20.35,68.38-19.26,85.29-21c4.08-.42,6.1-1.64,6.45-3.18.71-3.16-18.06-7.57-34.72-8-29.56-.72-46.82,11.12-50.81,5.16-4.46-6.66,14.64-25.15,11.14-29.22-2.71-3.15-15.7,7.18-29.61,13.54-9.87,4.51-48.52,52.37-48.52,52.37Z"/><path class="cls-25" d="M1899.84,943.49c-2.36,114.93-58.08,219.31-147.29,270.71-3.69,2.12-7.46,4.18-11.28,6.12-163,83.23-326.35-57.6-346-75.12-5.09-4.51-29.42-26.78-54.79-63.73-28.59-41.56-58.5-101.75-63.66-176-2.1-30.39-8.52-123.05,39.53-151.14,49.45-28.92,128.15,27.16,160.12,49.93,135.2,96.34,138.45,214.6,212.81,226.61,33.32,5.38,86.27-9.74,165.79-117.46Z"/><path class="cls-42" d="M1752.55,1214.2c-3.69,2.12-7.46,4.18-11.28,6.12-163,83.23-326.35-57.6-346-75.12-5.09-4.51-29.42-26.78-54.79-63.73,7.89-35.72,18.62-83.06,18.62-83.06s70-8.69,103.14,74.22c12,30,26.47,59.14,51,80.15,24.73,21.24,43.86,18,75,13.14,28.68-4.45,58.65,17.42,83.5,27.95C1697.46,1204.78,1724.14,1216,1752.55,1214.2Z"/><path class="cls-43" d="M993.52,2548.81c-5.69,5.29-6,17.93-6.28,26.2-.11,3.69-.16,5.54.31,6.82,3.45,9.36,21.22,9.63,49.19,11.44,44.21,2.87,57.5,5.92,60.55-1,2.85-6.49-5.57-16.59-6.51-17.7-5.09-6-11-8-22.45-11.34-21.15-6.23-35.38-9.53-39.69-10.53C1001.75,2546.46,997.25,2545.34,993.52,2548.81Z"/><path class="cls-44" d="M1024.51,2503.83l1.72,52.16c-1.38,2.41-16.65,8.76-28.13,1.41l-8.67-51.8Z"/><path class="cls-45" d="M1366.65,2549.78c-7.63,7.67-10.06,22.68-4.17,30.62s15.34,3,41.6,5.87c28.13,3.05,35.14,10.49,54.59,6.52,7.85-1.61,21.81-5.91,21.84-11.63,0-4-6.83-6.63-29.66-16.46-32.41-13.95-32.23-14.56-39.17-16.3C1394.24,2544,1376.74,2539.66,1366.65,2549.78Z"/><path class="cls-46" d="M1387.15,2503.75l11.63,49.6c-1.21,2.52-16,10.09-28.06,3.64l-18.54-48.69Z"/><path class="cls-47" d="M1316.62,1432.27A4723.12,4723.12,0,0,0,1400,2518.92l-54.85,10.85c-43.42-47.5-97.44-121.12-120.16-221-14.1-62-6.74-92.75-13.81-168.22-11.27-120.15-43.29-185-74.75-283.45-28.25-88.43-60.36-217.49-72.36-387.77Z"/><path class="cls-48" d="M1291.39,2194.65c-20.1-82.71-58.81-105.19-60.19-182.89-1-55,18.12-59.13,16.85-111.75-1.92-79.81-47.09-122.37-69.77-172.89-24-53.34-33.12-138.55,31.42-279.17l-145.62,21.34c12,170.28,44.11,299.34,72.36,387.77,31.46,98.46,63.48,163.3,74.75,283.45,7.07,75.47-.29,106.23,13.81,168.22,22.72,99.91,76.74,173.54,120.16,221l13.94-2.76c-46.94-58.92-63.49-111-67.71-153C1284.54,2305.58,1311.67,2278.06,1291.39,2194.65Z"/><path class="cls-49" d="M1134.3,1419.65q-32.52,309.36-59.51,630.4-20.16,240.81-36,475.67l-55.29,2.78a692.89,692.89,0,0,1-49.36-157.35c-15.34-82.57-8.34-130.39-12.57-215.08-4.74-95-17.64-116.54-36.22-237.25-37.7-244.86-56.54-367.24,3.24-438.4C908,1457.3,968.13,1400.06,1134.3,1419.65Z"/><path class="cls-25" d="M657.84,773.32c99.09-34.08,250.58-71.58,436.33-62.19,107.85,5.45,211.59,18.07,285.24,40,10,57.68,9.08,122.68,19,180.38a2127.85,2127.85,0,0,1-3.25,228.45c-6.29,92.37-12.43,93.69-26.82,224-23.45,212.39-13.64,268.11-55,293-26.88,16.2-36.61-4-173.59-20.12-91.69-10.8-138.43-15.87-184.78-.31-63.07,21.17-84.16,58-110.15,45.5-24.91-12-28.08-56.65-31.09-134.49-4.64-120.08-4.35-201.65-4.78-230.85-2-134-34.64-236.64-76.47-368A1830.79,1830.79,0,0,0,657.84,773.32Z"/><path class="cls-50" d="M1081.85,578A406.46,406.46,0,0,1,1071,656.4c-5,20.74-8.14,26-12,30.15-5.79,6.28-14.34,11.31-61.6,20.34-25.7,4.92-28.95,4.53-29.64,7.1-3.39,12.55,63.55,60.31,135.64,54.4,44.16-3.61,85.4-27,83.65-40.71s-45.94-9.27-57.72-34.84c-8.18-17.78,3.25-41.58,16.33-61.06C1135.18,608.46,1092.33,601.34,1081.85,578Z"/><path class="cls-17" d="M1212.06,507.48c32.75-34.55,42.94-101.31,16.14-148.07-23-40.22-65.92-51.36-91.58-58C1062.29,282,963,301.65,920.8,369c-25,39.94,6.24,134.31,10.86,151.14,5.25,19,18.11,27.08,29,42.43,15.1,21.28,38.68,55.07,77,111.43a329,329,0,0,1,23.85-50.68c4.2-7.21,21-35.32,43.72-57.4C1150.9,521.66,1181,540.22,1212.06,507.48Z"/><path class="cls-41" d="M979.29,623s38.93,91.12,138.55,98.09C1207.08,727.35,1246,523.6,1195,472.24c-17-17.14-54-28.36-85.84-23.65-18.79,2.77-25.92,9.74-56.71,13.65-28.39,3.61-35.75-.6-45,5.48-11.51,7.62-21.9,28.74-12.18,91.16-14.63-20-34-29.58-49.24-24.54a30.6,30.6,0,0,0-13.27,10.27C917.5,566.37,934.39,599.17,979.29,623Z"/><path class="cls-25" d="M759.19,1324.26c2.3,28-3.57,46.91-13.36,59.8-43.36,57.13-190.54,31.58-277.85-46.73-64.55-57.9-98.71-146.92-97.45-226.3C373,956.14,511,805.53,716.87,754.73q45.78,142.53,91.62,285.2c-127.17.69-204.3,99.32-192.87,170.43C624.14,1263.35,683.51,1311.66,759.19,1324.26Z"/><path class="cls-42" d="M1260.09,1606.38c-67.4-30.73-67-92.27-129.89-118.83-89.62-37.85-188.5,45.81-203.92,22-16-24.74,102-98.35,86.29-172.77-12.49-59.12-94.88-49.68-139-130.86-41.79-77-1.28-147.22-38.28-174.19-13.27-9.66-36.67-13.67-81,6.13,30.91,100.56,53.08,189.22,54.69,298.83.43,29.2.14,110.77,4.78,230.85,3,77.84,6.18,122.52,31.09,134.49,26,12.48,47.08-24.33,110.15-45.5,46.35-15.56,93.09-10.49,184.78.31,137,16.12,146.71,36.32,173.59,20.12,17.51-10.55,25.84-26.7,31.41-57.87C1317.3,1621.77,1288.12,1619.17,1260.09,1606.38Z"/><path class="cls-41" d="M749.26,1336.06l32.83-1.49s36-30.81,52.38-28.65,40.93,14.26,43.92,16.78-9,16.23-20.94,14.73-38.65,4.86-43.43,15.73-25.47,17.2-29,10.74l-44.13,8.53Z"/></g><path class="cls-51" d="M1270,1930.14c0,119.89,116.72,217.37,262.86,217.73,148.59.37,270.87-99.48,270.87-223s-122.28-221-270.87-217.65C1386.7,1710.46,1270,1810.25,1270,1930.14Z"/><path class="cls-25" d="M1270,1930.14c0,119.89,116.72,217.37,262.86,217.73,148.59.37,270.87-99.48,270.87-223s-122.28-221-270.87-217.65C1386.7,1710.46,1270,1810.25,1270,1930.14Z"/><path class="cls-25" d="M1420.26,2114.08s-64,71.08-157.27,11.63l-18.78-19.94s94.65-48.23,96.84-89.38Z"/><path class="cls-52" d="M1251.2,1910.21c0,119.89,116.71,217.37,262.85,217.73,148.59.37,270.87-99.48,270.87-223s-122.28-221-270.87-217.64C1367.91,1690.53,1251.2,1790.32,1251.2,1910.21Z"/><path class="cls-35" d="M1251.2,1910.21c0,119.89,116.71,217.37,262.85,217.73,148.59.37,270.87-99.48,270.87-223s-122.28-221-270.87-217.64C1367.91,1690.53,1251.2,1790.32,1251.2,1910.21Z"/><path class="cls-35" d="M1401.47,2094.14s-64,71.09-157.26,11.63c0,0,74.74-47.13,78-109.31Z"/><g class="cls-36"><path class="cls-25" d="M1449.51,2071.86c32-65-.35-125.44,43-167.77,44.21-43.23,102-4.06,164.6-39.76,24.32-13.88,51.44-40.24,71.66-94.14,35.21,37,56.19,83.69,56.19,134.72,0,123.55-122.28,223.4-270.87,223a314.37,314.37,0,0,1-95.26-14.79A144.37,144.37,0,0,0,1449.51,2071.86Z"/></g><circle class="cls-3" cx="1391.86" cy="1907.56" r="35.74"/><circle class="cls-3" cx="1522.58" cy="1907.56" r="35.74"/><circle class="cls-3" cx="1653.3" cy="1907.56" r="35.74"/><circle class="cls-53" cx="2959.89" cy="1199.8" r="133.33"/><ellipse class="cls-53" cx="2959.89" cy="1199.8" rx="55.19" ry="133.33"/><ellipse class="cls-53" cx="2959.89" cy="1199.8" rx="133.33" ry="55.19"/></g></g></svg>