<svg xmlns="http://www.w3.org/2000/svg" xmlns:xlink="http://www.w3.org/1999/xlink" viewBox="0 0 3710 3710"><defs><style>.cls-1{fill:url(#linear-gradient);}.cls-2{fill:#7ec2eb;}.cls-3{fill:#40b76c;}.cls-4{isolation:isolate;}.cls-17,.cls-19,.cls-5,.cls-7{fill:#fff;}.cls-6{clip-path:url(#clip-path);}.cls-7{opacity:0.5;}.cls-8{clip-path:url(#clip-path-2);}.cls-9{clip-path:url(#clip-path-3);}.cls-10{fill:#3575bb;}.cls-11{fill:#d94443;}.cls-12{fill:url(#linear-gradient-3);}.cls-13{fill:#f0b71c;}.cls-14{fill:url(#linear-gradient-4);}.cls-15{fill:#2d3136;}.cls-16{fill:url(#linear-gradient-5);}.cls-17{mix-blend-mode:soft-light;opacity:0.48;}.cls-18{mix-blend-mode:multiply;opacity:0.3;fill:url(#linear-gradient-6);}.cls-19{opacity:0.8;}</style><linearGradient id="linear-gradient" x1="2718.21" y1="692.07" x2="2167.64" y2="1578.66" gradientUnits="userSpaceOnUse"><stop offset="0" stop-color="#fcb149"/><stop offset="0.06" stop-color="#fdbb48"/><stop offset="0.14" stop-color="#ffc346"/><stop offset="0.32" stop-color="#ffc546"/><stop offset="0.48" stop-color="#fdba48"/><stop offset="0.78" stop-color="#f99d4e"/><stop offset="0.87" stop-color="#f79350"/><stop offset="1" stop-color="#f79350"/></linearGradient><clipPath id="clip-path"><path class="cls-1" d="M2121.75,2225.86c-42.87-123.86-87.52-313.27-42.24-525.11,52-243.24,175-293.72,282.07-554.56,171.64-418.37,33.14-722.54,131.29-753C2595,361.57,2852.49,657.79,2850.78,979c-1.59,297.44-224.85,506.69-246.89,526.76-170,154.75-305.52,124.57-412.92,270.72C2087.75,1916.92,2099,2099.85,2121.75,2225.86Z"/></clipPath><clipPath id="clip-path-2"><path class="cls-2" d="M2127.13,2170.84c-24.6-88.18-48.37-227.48,11.09-360.83,103.74-232.64,344-185.31,541-443.88,158.89-208.54,86.38-349.33,271.55-496.57,132.88-105.67,307.59-142.38,332.59-104,26.87,41.29-148.18,125-227.82,331.93-103.63,269.27,78.79,423.75-31.58,592.57-83.94,128.41-220.77,86.91-519.1,231.59A1738,1738,0,0,0,2127.13,2170.84Z"/></clipPath><clipPath id="clip-path-3"><path class="cls-3" d="M2115.71,2094.91a1151.11,1151.11,0,0,1,227.84-153.06c238.23-121.33,358.95-75.8,489.11-188.43,160-138.47,128.91-338.25,181.43-337,77.23,1.87,232.45,435.86,43.23,617.27-121.19,116.18-340.32,87.21-385.05,80.1-105.9-16.84-134.64-54.28-242-68.27C2299.8,2028.54,2188,2063.79,2115.71,2094.91Z"/></clipPath><linearGradient id="linear-gradient-3" x1="1456.9" y1="3000.27" x2="3029.11" y2="3000.27" gradientUnits="userSpaceOnUse"><stop offset="0.49" stop-color="#eaedf2"/><stop offset="1" stop-color="#fff"/></linearGradient><linearGradient id="linear-gradient-4" x1="1456.9" y1="2523.85" x2="3029.11" y2="2523.85" xlink:href="#linear-gradient-3"/><linearGradient id="linear-gradient-5" x1="1448.98" y1="1351.2" x2="1260.91" y2="1430.19" gradientUnits="userSpaceOnUse"><stop offset="0" stop-color="#41457f"/><stop offset="1" stop-color="#3d3c6c"/></linearGradient><linearGradient id="linear-gradient-6" x1="896.39" y1="2072.75" x2="2660.56" y2="2072.75" xlink:href="#linear-gradient-5"/></defs><g class="cls-4"><g id="Layer_1" data-name="Layer 1"><path class="cls-5" d="M1895.78,422.44C1164.9,400.25,531.8,945.62,436.15,1661.22c-104.57,782.4,471,1486.38,1179.26,1599.14,880.93,140.24,1735.38-671.1,1658.66-1551.28C3216.27,1046,2638.73,445,1895.78,422.44Z"/><path class="cls-1" d="M2121.75,2225.86c-42.87-123.86-87.52-313.27-42.24-525.11,52-243.24,175-293.72,282.07-554.56,171.64-418.37,33.14-722.54,131.29-753C2595,361.57,2852.49,657.79,2850.78,979c-1.59,297.44-224.85,506.69-246.89,526.76-170,154.75-305.52,124.57-412.92,270.72C2087.75,1916.92,2099,2099.85,2121.75,2225.86Z"/><g class="cls-6"><path class="cls-7" d="M2125.93,2504c-84.2-337.69-68.55-628.62,46.51-864.71,69.52-142.63,160.66-236.1,241.08-318.56,97.39-99.88,181.51-186.13,214.5-333,46.7-207.81-32.93-445.38-236.67-706.11l3.32-2.59c204.56,261.77,284.45,500.52,237.47,709.62-33.26,148-117.76,234.66-215.6,335-80.2,82.24-171.09,175.45-240.31,317.47-114.62,235.17-130.16,525.14-46.2,861.84Z"/><path class="cls-7" d="M2615.24,1039.71l-.6-4.19A483.28,483.28,0,0,0,2544.35,845c-57.76-90.56-133.69-142.2-187.21-169.58l1.91-3.76c54,27.62,130.59,79.72,188.85,171.07a487.56,487.56,0,0,1,70.3,188c52.24-53.44,93-118.21,117.87-187.59,43-119.76,32.4-228,15.92-297.81l4.11-1c16.6,70.32,27.3,179.48-16.06,300.2-25.59,71.26-67.72,137.71-121.82,192.16Z"/><path class="cls-7" d="M2366.08,1376.23l2.7-3.77c26.32-36.7,69.59-113.82,63.7-218-5.39-95.5-49.94-163.6-76-195.7l3.27-2.66c26.4,32.5,71.5,101.44,77,198.12,5.76,102-35,178.44-61.81,217,104.83-10.71,205.63-45.57,291.77-101,197.39-126.92,267.21-326,288.06-405.76l4.08,1.07c-21,80.2-91.22,280.51-289.86,408.24-88,56.56-191.09,91.85-298.23,102.06Z"/><path class="cls-7" d="M2154.21,1688.41l-.1-2.1c-2.42-49-2.42-98.6,0-147.49a1505.87,1505.87,0,0,1,49.19-313.57l4.07,1.09a1502.17,1502.17,0,0,0-49,312.7c-2.38,48-2.41,96.81-.1,145,116.24-5.55,227.64-32.61,331.14-80.45,234.08-108.2,362-295,417.41-396.64l3.7,2c-55.66,102.15-184.15,289.74-419.34,398.45-104.62,48.35-217.27,75.58-334.82,80.93Z"/></g><path class="cls-2" d="M2127.13,2170.84c-24.6-88.18-48.37-227.48,11.09-360.83,103.74-232.64,344-185.31,541-443.88,158.89-208.54,86.38-349.33,271.55-496.57,132.88-105.67,307.59-142.38,332.59-104,26.87,41.29-148.18,125-227.82,331.93-103.63,269.27,78.79,423.75-31.58,592.57-83.94,128.41-220.77,86.91-519.1,231.59A1738,1738,0,0,0,2127.13,2170.84Z"/><g class="cls-8"><path class="cls-7" d="M2086.32,2477.78h-4.21c.34-322.05,79.65-553.23,235.73-687.12,74.24-63.68,146.18-89.74,215.74-114.94,85.51-31,166.28-60.25,240.62-156.66,66.45-86.19,78.84-162.78,92-243.88,12.09-74.72,24.59-152,78.94-245,81.52-139.52,218.81-247.05,408.07-319.61l1.51,3.94c-188.34,72.2-324.92,179.12-405.94,317.8-53.95,92.35-66.39,169.22-78.42,243.55-13.2,81.64-25.68,158.75-92.78,245.78-75.09,97.39-156.42,126.85-242.52,158.05-69.21,25.08-140.78,51-214.43,114.19C2165.48,1926.91,2086.66,2157,2086.32,2477.78Z"/><path class="cls-7" d="M2880.59,1214.16l-2-5.52a420.11,420.11,0,0,1-24.91-157c4.28-125.1,65-217.14,100.8-260.87l3.26,2.67c-35.47,43.32-95.61,134.48-99.85,258.34a415.28,415.28,0,0,0,22.73,149.89c28.69-77.07,71.52-132.78,127.36-165.61,58.67-34.5,112.11-33,168.69-31.4,35,1,71.15,2,109-6.16,116-25,218-131.31,303.26-316l3.83,1.77c-85.8,185.92-188.82,293-306.2,318.33-38.39,8.27-74.83,7.23-110.05,6.25-55.95-1.58-108.81-3.07-166.43,30.81-56.29,33.1-99.21,89.94-127.56,168.94Z"/><path class="cls-7" d="M2749.63,1552.11l-.33-2.2a1218.47,1218.47,0,0,1,16.3-454l4.11.93a1214.2,1214.2,0,0,0-16.58,450.2,521.57,521.57,0,0,0,192.59-83.71c88.19-61.95,139.14-138.8,166.36-192.36l3.76,1.91c-27.43,54-78.8,131.45-167.69,193.9a525.73,525.73,0,0,1-196.34,84.84Z"/><path class="cls-7" d="M2796.53,1764.13q-26.15,0-53.29-1.82a787.25,787.25,0,0,1-255.58-61.82l-3-1.27L2487,1697a376,376,0,0,0,94.88-142.75,371.35,371.35,0,0,0,23-137.77l4.22-.09a375.66,375.66,0,0,1-23.25,139.32,380.24,380.24,0,0,1-93.61,142.14,782.79,782.79,0,0,0,251.26,60.24c191.58,13.15,346.94-47.52,443.54-100.73l2,3.7C3101.13,1709.52,2964.66,1764.13,2796.53,1764.13Z"/><path class="cls-7" d="M2615.1,1950.87c-23.14-28.14-73.72-78-152.47-96.13-138-31.68-245.89,61.42-257.74,72.13l-3.83,3.47.32-5.16a575.63,575.63,0,0,1,27.68-145.27c26.05-79.23,68.6-151.12,126.46-213.69l3.1,2.86c-57.45,62.12-99.69,133.5-125.55,212.14a571.77,571.77,0,0,0-27.16,139.16c23.38-19.91,127.23-99.69,257.67-69.75,80,18.36,131.29,69,154.78,97.56Z"/></g><path class="cls-3" d="M2115.71,2094.91a1151.11,1151.11,0,0,1,227.84-153.06c238.23-121.33,358.95-75.8,489.11-188.43,160-138.47,128.91-338.25,181.43-337,77.23,1.87,232.45,435.86,43.23,617.27-121.19,116.18-340.32,87.21-385.05,80.1-105.9-16.84-134.64-54.28-242-68.27C2299.8,2028.54,2188,2063.79,2115.71,2094.91Z"/><g class="cls-9"><path class="cls-7" d="M2057.07,2132.26l-2.57-3.34c141.28-109.28,282.41-163.6,419.52-161.33,73.91,1.2,131.34,18.15,182,33.1,66.69,19.69,124.29,36.67,193.94,8,88.94-36.6,156.87-131.24,191.29-266.48,55.15-216.7-66.93-397.59-105.67-447.87l3.34-2.58c39,50.67,162,233,106.42,451.49-34.76,136.57-103.57,232.22-193.77,269.34-71,29.23-129.29,12-196.75-7.87-50.41-14.88-107.56-31.74-180.89-32.93C2337.89,1969.53,2197.58,2023.58,2057.07,2132.26Z"/><path class="cls-7" d="M2995.18,1868l.79-4.16a499,499,0,0,0,0-186.82,505.4,505.4,0,0,0-80.42-191.78l3.47-2.4a509.86,509.86,0,0,1,81.1,193.4,503.29,503.29,0,0,1,.77,184.19c33.34-17.14,78.4-48.29,111.28-101.34,70.1-113.11,29.47-237.6,20.61-261.4l3.95-1.47c9,24.13,50.16,150.31-21,265.09-34.66,55.93-82.63,87.87-116.77,104.81Z"/><path class="cls-7" d="M2906.08,2104.31A449.59,449.59,0,0,1,2767,2082.62c-58.91-19.08-113.21-50-161.37-92l-4.82-4.21,6.38.52c92.51,7.4,179.18-33.81,226.12-107.6,50.14-78.83,33.57-163.51,27.3-187.59l4.09-1.06c6.37,24.49,23.22,110.65-27.83,190.91-46.7,73.42-132,115.22-223.67,110,46.53,39.5,98.68,68.78,155.1,87.05,160.63,52,305.75-3.45,360.68-29.73l1.82,3.81C3092,2071.26,3008.41,2104.31,2906.08,2104.31Z"/><path class="cls-7" d="M2671.45,2207.57c-22.6-48.37-76.39-137-182.65-187A367.65,367.65,0,0,0,2345,1986l-.12-4.21c84.84-8.28,146.6-32.28,183.56-71.35,3.33-3.52,7.63-8.38,14.14-15.75,8.76-9.91,22-24.89,42.3-47.24s40.81-44.47,61-65.86l3.07,2.89c-20.18,21.38-40.68,43.52-60.94,65.81s-33.52,37.29-42.27,47.19c-6.54,7.4-10.86,12.29-14.23,15.86-34.26,36.21-89.17,59.7-163.41,70a369.46,369.46,0,0,1,122.46,33.43c107.46,50.59,161.84,140.16,184.68,189Z"/></g><polygon class="cls-10" points="675.11 2149.74 1789.88 2217.67 3027.6 2146.34 1806.86 2533.37 675.11 2149.74"/><path class="cls-11" d="M1577.52,3318.52,670.41,2964.76c-89.17-24-158.45-112.35-158.45-198v-.94c0-85.68,69.28-143.16,158.45-127.43l971.34,270.86Z"/><path class="cls-12" d="M3029.11,3024.1,1620.18,3299.33c-89.61,10-163.28-52.48-163.28-139.71v-59.18c0-87.23,73.67-163.81,163.28-170.94l1408.93-229.33C2965.81,2818,2951.2,2928.28,3029.11,3024.1Z"/><path class="cls-13" d="M3041.57,3040l-1409.4,277.72c-116.88,13.25-213.73-68.61-213.73-182.73v-1.25c0-114.12,96.85-214.52,213.73-223.63L3041.57,2683c8.61-.67,15.58,6.5,15.58,16s-7,17.79-15.58,18.49l-1409.4,232c-94,7.66-171.66,88.55-171.66,180.2v1.25c0,91.66,77.63,157.69,171.66,147.35l1409.4-272.82c8.61-.95,15.58,6,15.58,15.51S3050.18,3039,3041.57,3040Z"/><path class="cls-10" d="M1614.71,2910.18l-944.3-271.82C581.24,2622.63,512,2505.75,512,2377.1v-1.41C512,2247,581.24,2145,670.41,2148.26l1000.4,151.81Z"/><path class="cls-14" d="M3029.11,2658,1700.36,2875.35c-133.19,10-243.46-87.82-243.46-218.79V2567.7c0-131,110.27-240.16,243.46-243.79l1328.75-152.27C2965.6,2348.24,2951.41,2513.6,3029.11,2658Z"/><path class="cls-2" d="M3041.57,2683l-1409.4,227.08c-116.88,9.11-213.73-122.74-213.73-294.09v-1.89c0-171.35,96.85-313.16,213.73-316.06l1409.4-151c8.61-.21,15.58,11.2,15.58,25.48s-7,26.08-15.58,26.34l-1409.4,158.38c-94,2.82-171.66,117.11-171.66,254.74v1.87c0,137.63,77.63,243.94,171.66,237.09l1409.4-219.73c8.61-.62,15.58,10.45,15.58,24.74S3050.18,2682.33,3041.57,2683Z"/><path class="cls-2" d="M1328.62,2781.25,1109.71,2722c-46.06-125.7-42.59-241.16,0-379.16l218.91,38.81C1288.2,2526.87,1294.31,2658.41,1328.62,2781.25Z"/><path class="cls-15" d="M3068.05,2074.78,660.27,2051.56v68.71c0,18.65,10.5,34.51,24.73,37.34l680.84,135.31a85,85,0,0,0,24.43,1.27l1651.61-154.28c14.75-1.37,26.17-17.28,26.17-36.44Z"/><path class="cls-16" d="M2293,1963.4,686.77,2089.1c-28.74,2.25-52.11-21.65-52.11-53.39V764.13c0-31.74,23.37-57.47,52.11-57.47H2293c23.68,0,42.83,23.26,42.83,52V1908.1C2335.78,1936.79,2316.63,1961.54,2293,1963.4Z"/><path class="cls-10" d="M2318.56,1963.4,712.38,2089.1c-28.74,2.25-52.11-21.65-52.11-53.39V764.13c0-31.74,23.37-57.47,52.11-57.47H2318.56c23.68,0,42.83,23.26,42.83,52V1908.1C2361.39,1936.79,2342.24,1961.54,2318.56,1963.4Z"/><path class="cls-2" d="M2268.53,1882.36l-1496,109.19c-23.39,1.7-42.4-17.91-42.4-43.83V834.45c0-25.91,19-47,42.4-47.11l1496-6.85c19.53-.09,35.33,19,35.33,42.57v1014C2303.86,1860.65,2288.06,1880.93,2268.53,1882.36Z"/><path class="cls-5" d="M1572.2,741.44c0,11.81-8.27,21.42-18.48,21.45s-18.51-9.53-18.51-21.38,8.29-21.44,18.51-21.45S1572.2,729.62,1572.2,741.44Z"/><path class="cls-17" d="M1931.58,1614.65c-123.82-73.78-221.18,19.7-315.14-72.54-57-55.92-29-97.62-99.1-181.19-77.63-92.56-128.17-61.44-206.2-144.75-98.65-105.33-49.31-187.28-134.28-262.9-103.09-91.75-214.27-6.83-312.4-94.82-42.33-38-65.55-93.12-77.68-151.79h-96c-16.82,0-30.49,15.1-30.49,33.73V2058.5c0,18.63,13.67,32.65,30.49,31.33l1637-128.68c8-.63,15.16-5.82,19.73-13.35-119.83-4.84-193.45-49.33-240.5-95.31C2014.89,1762.52,2030.85,1673.8,1931.58,1614.65Z"/><path class="cls-10" d="M2278.49,1957.7,660.27,2090l705.57,140.22a84.6,84.6,0,0,0,24.43,1.27l1677.78-156.72L2304.23,1958.6A110.92,110.92,0,0,0,2278.49,1957.7Z"/><polygon class="cls-18" points="896.39 2093.34 2243.61 1981.54 2660.56 2044.45 1324.95 2163.96 896.39 2093.34"/><path class="cls-19" d="M1798.93,1232.47h-52.67v-92.3a193.74,193.74,0,1,0-387.48,0v92.3h-52.67a56.07,56.07,0,0,0-56.07,56.07v254.88c0,133.31,108.07,241.39,241.38,241.39h122.2c133.31,0,241.38-108.08,241.38-241.39V1288.54A56.07,56.07,0,0,0,1798.93,1232.47Zm-189.3,389.4H1496.22L1516.85,1466a58.39,58.39,0,1,1,72.08-.59Zm61.82-389.4H1433.58v-92.3a118.94,118.94,0,1,1,237.87,0Z"/></g></g></svg>