<svg xmlns="http://www.w3.org/2000/svg" xmlns:xlink="http://www.w3.org/1999/xlink" viewBox="0 0 3710 3710"><defs><style>.cls-1{fill:none;}.cls-2{isolation:isolate;}.cls-11,.cls-3{fill:#fff;}.cls-4{fill:#3fb76c;}.cls-11,.cls-15,.cls-5{mix-blend-mode:soft-light;}.cls-6{clip-path:url(#clip-path);}.cls-7{fill:#fcfdfe;}.cls-8{fill:#3374ba;}.cls-9{fill:#7cc2eb;}.cls-10{fill:#d8dee8;}.cls-11{opacity:0.48;}.cls-12{fill:#c7ccd3;}.cls-12,.cls-20{mix-blend-mode:multiply;opacity:0.3;}.cls-13{fill:url(#linear-gradient);}.cls-14{fill:url(#linear-gradient-2);}.cls-15{opacity:0.5;}.cls-16{clip-path:url(#clip-path-2);}.cls-17{fill:#f4cf98;}.cls-18{fill:#db9d14;}.cls-19{fill:url(#linear-gradient-3);}.cls-20{fill:url(#linear-gradient-4);}.cls-21{fill:url(#linear-gradient-5);}.cls-22{fill:#2c3035;}.cls-23{fill:#f1b71c;}.cls-24{fill:#d94343;}.cls-25{fill:#e0b986;}</style><clipPath id="clip-path"><path class="cls-1" d="M1221.8,1682.27c27.07-174.57,137.07-498.43,11.61-660.42C1090.47,837.3,943.83,973.58,856.7,824.31,720.51,591,458.69,474.08,262.47,661.69,68.81,846.86,198.94,1295.91,632.32,1708.14c277.41,330.95,269.31,415.8,212.08,616.6C804.31,2465.38,1120,2338.63,1221.8,1682.27Z"/></clipPath><linearGradient id="linear-gradient" x1="761.79" y1="2006.87" x2="2864.19" y2="2006.87" gradientUnits="userSpaceOnUse"><stop offset="0" stop-color="#fff"/><stop offset="1" stop-color="#ebeff2"/></linearGradient><linearGradient id="linear-gradient-2" x1="2104.94" y1="3125.11" x2="1976.9" y2="2637.19" xlink:href="#linear-gradient"/><clipPath id="clip-path-2"><polygon class="cls-1" points="1100.86 2702.53 2318.96 2632.02 3141.95 1687.31 2602.61 834.87 425.89 1202.69 728.38 2624.18 1100.86 2702.53"/></clipPath><linearGradient id="linear-gradient-3" x1="2465.49" y1="3706.94" x2="2018.99" y2="2700.41" gradientUnits="userSpaceOnUse"><stop offset="0" stop-color="#444b8c"/><stop offset="1" stop-color="#26264f"/></linearGradient><linearGradient id="linear-gradient-4" x1="2465.49" y1="3706.94" x2="2018.99" y2="2700.41" xlink:href="#linear-gradient-3"/><linearGradient id="linear-gradient-5" x1="1698.03" y1="3871.83" x2="1251.55" y2="2865.35" gradientTransform="matrix(0.99, -0.12, 0.12, 0.99, 83.38, 107.97)" xlink:href="#linear-gradient-3"/></defs><g class="cls-2"><g id="Illustration"><path class="cls-3" d="M1987.57,462.2C1316,441.8,734.2,943,646.3,1600.53c-96.1,719,432.82,1365.86,1083.63,1469.47,809.5,128.88,1594.67-616.67,1524.17-1425.48C3201,1035.15,2670.28,482.93,1987.57,462.2Z"/><path class="cls-4" d="M844.4,2324.73c-11,38.46-33.51,92.75-57,155l652.27-79.56c-122.1-172.05-275.57-345.88-217.88-717.88,27.07-174.57,137.08-498.43,11.61-660.42C1090.47,837.3,943.83,973.58,856.7,824.31,720.51,591,458.69,474.08,262.47,661.69,68.81,846.86,198.94,1295.91,632.32,1708.14,909.73,2039.09,901.63,2123.94,844.4,2324.73Z"/><g class="cls-5"><g class="cls-6"><path class="cls-7" d="M1120,2400.79c-17.85-83.65-38.93-161.65-61.25-244.23l-7.43-27.53c-13.2-39.1-25.15-78-36.7-115.64-26.09-85-50.74-165.23-88.6-247.26-1.64-4.94-3-9.81-4.42-15-5.11-18.42-10.39-37.47-26-52.8l-.46-.69c-166.6-443-427.38-859-775.09-1236.54l2.81-2.58c347.93,377.77,608.92,794.09,775.71,1237.39,16.16,16,21.78,36.29,26.74,54.2,1.42,5.11,2.76,9.94,4.29,14.6,37.89,82.06,62.57,162.44,88.7,247.53,11.55,37.61,23.49,76.49,36.71,115.66l7.46,27.64c22.33,82.63,43.42,160.67,61.3,244.43Z"/><path class="cls-7" d="M1006.3,1998.73c-62.43-213.94-18.37-500.17,29.57-702.62,51.93-219.24,119.48-390.17,120.15-391.87l3.55,1.4c-.68,1.7-68.14,172.42-120,391.4-47.84,202-91.8,487.5-29.61,700.63Z"/><path class="cls-7" d="M608.09,1103.41c-78.9-223.33-110-476-120.19-559-1.95-15.88-3.24-26.37-3.84-28.31L487.7,515c.67,2.18,1.71,10.46,4,29,10.2,82.92,41.24,335.26,120,558.2Z"/><path class="cls-7" d="M789.06,1445.64c-130.25-175.49-579.68-240.41-584.2-241l.53-3.78c4.54.64,455.54,65.79,586.73,242.55Z"/></g></g><path class="cls-8" d="M3284.11,3026.71,539.56,3002.59V3074c0,19.37,12,35.84,28.18,38.78l776.08,140.55a105.68,105.68,0,0,0,27.84,1.32l1882.62-160.25c16.81-1.43,29.83-18,29.83-37.86Z"/><path class="cls-8" d="M2334.13,1659.53v1194a63.25,63.25,0,0,1-13.8,39.58c-8.27,10.18-19.69,16.93-32.19,17.89l-867.64,65.86-395,29.44-444.64,33.26h0l-12.9,1.49c-1.56.1-3.08.43-4.61.4a55.89,55.89,0,0,1-6.4-.36,53.89,53.89,0,0,1-18.18-5.75,56.08,56.08,0,0,1-28.26-49.24V1665.24c0-32.94,26.68-58.27,57.45-58.27H2288.11C2313.47,1607,2334.13,1629.7,2334.13,1659.53Z"/><path class="cls-9" d="M2361.82,1659.53v1194a62.59,62.59,0,0,1-15.33,41c-5.44,6.16-12.22,10-19.52,13.49h0c-1.1,0-2.21,1-3.35,1.28a39.6,39.6,0,0,1-8,1.56L1050.08,3007l-454.7,34.53a50.9,50.9,0,0,1-10.07-.75c-1.49-.17-3-1.23-4.43-1.23h0a12.58,12.58,0,0,1-3.56-.38,53,53,0,0,1-36.2-36.84c-1.45-5.19-2.9-10.47-2.9-16.24V1665.24c0-32.94,26.4-58.27,57.2-58.27H2315.55C2340.91,1607,2361.82,1629.7,2361.82,1659.53Z"/><path class="cls-10" d="M2262,2826.83,659.79,2940.25c-25,1.77-45.4-18.61-45.4-45.52V1738.31c0-26.92,20.35-48.83,45.4-48.94L2262,1682.25c20.92-.1,37.84,19.7,37.84,44.22V2779.76C2299.8,2804.28,2282.88,2825.35,2262,2826.83Z"/><path class="cls-3" d="M1516.21,1641.69c0,12.27-8.85,22.25-19.79,22.28s-19.83-9.9-19.83-22.2,8.89-22.28,19.83-22.29S1516.21,1629.41,1516.21,1641.69Z"/><path class="cls-11" d="M1901.1,2548.74c-132.61-76.64-236.88,20.47-337.51-75.34-61-58.09-31.06-101.41-106.13-188.22-83.14-96.14-137.27-63.82-220.83-150.36-105.66-109.41-52.81-194.54-143.82-273.1-110.41-95.3-229.47-7.09-334.57-98.49-45.33-39.41-70.21-96.72-83.19-157.67H572.21c-18,0-32.65,15.69-32.65,35V3009.79c0,19.36,14.63,33.93,32.65,32.55l1753.15-133.66c8.6-.66,16.23-6,21.13-13.88-128.34-5-207.18-51.23-257.58-99C1990.32,2702.34,2007.42,2610.19,1901.1,2548.74Z"/><path class="cls-9" d="M2384.11,2905.09,539.56,3042.53l804.26,145.66a105.67,105.67,0,0,0,27.84,1.31l1912.45-162.79L2413.45,2906A138.43,138.43,0,0,0,2384.11,2905.09Z"/><polygon class="cls-8" points="808.71 3045.99 2344.35 2929.86 2819.62 2995.21 1297.21 3119.35 808.71 3045.99"/><path class="cls-12" d="M2361.82,1659.53V2787.94l-27.62,1.66-35.64,2.11-32.58,1.94-168.38,10L817.76,2880a116.13,116.13,0,0,1-24.13-1c-38.48-5.64-70.25-30.21-85.27-64.51-2.25-5.15-5-10.55-6.42-16.12-2.45-9.28-4.58-19.07-4.58-29.24V1607H2315.55C2340.91,1607,2361.82,1629.7,2361.82,1659.53Z"/><path class="cls-10" d="M2836.16,1342.11c0-50.87-33-94.12-76.64-105-1.56-.39-3.29-.73-4.88-1a89.11,89.11,0,0,0-14.68-1.57l-934.4-23.08-955.12-23.58c-2,0-4.08,0-6.1,0a115.93,115.93,0,0,0-68.71,24.58l-1,.82c-2.72,2.18-5.35,4.48-7.86,6.9l-.18.17c-1.48,1.43-2.92,2.92-4.33,4.43a114.31,114.31,0,0,0-30.54,78.15v84.63h0V2715.67a114.89,114.89,0,0,0,3.75,29.26,110.31,110.31,0,0,0,5.62,16.11c15,34.31,46.78,58.88,85.25,64.51a118.15,118.15,0,0,0,24.12,1l1448.18-86.39h0l441.6-26.33c53-3.16,96-52.85,96-111V1417.64h0Z"/><path class="cls-13" d="M2768.61,1234.34,880.44,1187.69c-65.35-1.61-118.65,49.87-118.65,115V2715c0,65.14,53.3,114.76,118.65,110.86L2768.61,2713.2c52.92-3.15,95.58-52.82,95.58-110.94V1341.94C2864.19,1283.82,2821.53,1235.64,2768.61,1234.34Z"/><path class="cls-14" d="M880.44,2788.44c-44.36,2.56-80.61-31.29-80.61-75.47V1303.41a78.34,78.34,0,0,1,80.61-78.29l1888.17,43c36,.82,65.18,33.67,65.18,73.25V2603.89c0,39.57-29.18,73.45-65.18,75.53Z"/><path class="cls-10" d="M2768.61,1234.34,880.44,1187.69c-65.35-1.61-118.65,49.87-118.65,115v84.6l2102.4,30.14v-75.5C2864.19,1283.82,2821.53,1235.64,2768.61,1234.34Z"/><path class="cls-3" d="M972.45,1295.33a37.45,37.45,0,0,1-38.31,37.52,39.23,39.23,0,0,1-38.46-39,37.45,37.45,0,0,1,38.46-37.52A39.24,39.24,0,0,1,972.45,1295.33Z"/><path class="cls-3" d="M1105.8,1297.9a37.05,37.05,0,0,1-37.78,37.26,38.81,38.81,0,0,1-37.93-38.72,37.06,37.06,0,0,1,37.93-37.27A38.83,38.83,0,0,1,1105.8,1297.9Z"/><path class="cls-3" d="M1237.33,1300.43a36.67,36.67,0,0,1-37.26,37c-20.65-.35-37.41-17.57-37.41-38.45a36.67,36.67,0,0,1,37.41-37C1220.67,1262.41,1237.33,1279.63,1237.33,1300.43Z"/><polygon class="cls-3" points="2752.59 2608.75 900.05 2708.16 900.05 1600.63 2752.59 1607.01 2752.59 2608.75"/><polygon class="cls-10" points="1911.13 1495.39 900.05 1485.94 900.05 1545.77 1911.13 1552.1 1911.13 1495.39"/><polygon class="cls-10" points="2650.04 1502.31 2650.04 1556.73 2752.59 1557.38 2752.59 1503.27 2650.04 1502.31"/><g class="cls-15"><path class="cls-3" d="M2048.35,1949.24c-219.77-318.06-603.91-209-849.39-564.88-44.48-64.48-74.7-130.32-95.44-191.16l-223.08-5.51c-65.35-1.61-118.65,49.87-118.65,115V2715c0,65.14,53.3,114.76,118.65,110.86l1447.19-86.35a1159,1159,0,0,1-114.47-203.69C2085.85,2243.74,2180.19,2140,2048.35,1949.24Z"/></g><g class="cls-16"><path class="cls-17" d="M2538.94,1713.48s24.75-29.6,71.2-31,109.74-29,136.92-31.38c6.55-.59,9.8-2.47,10.36-4.87,1.15-4.92-29-12.11-55.79-13-47.46-1.58-75.14,16.63-81.54,7.27-7.15-10.46,23.48-39,17.87-45.42-4.35-5-25.18,11-47.47,20.66-15.82,6.9-77.71,80.9-77.71,80.9Z"/><path class="cls-18" d="M1831.27,1664.07c-2.38-33.63-9.61-136.16,44.48-166.83,55.73-31.6,144.6,31.21,180.78,56.77,153.35,108.36,157,239.85,241.67,254.21,38,6.45,98.45-9.68,189.42-128.85l51.31,34.11C2536.11,1847.1,2467,1967,2357.5,2020c-185.57,89.73-370.56-69.28-392.78-89C1952.52,1920.16,1842.21,1819.26,1831.27,1664.07Z"/><path class="cls-19" d="M2072,3415.5h189.3q-16.38-98-30.28-201.17a6302.73,6302.73,0,0,1-55.35-756.49l-358.53,75.25c29.78,234.63,85.33,410.16,132.32,529.76C1998.23,3187.08,2045.55,3270.7,2072,3415.5Z"/><path class="cls-20" d="M2072,3415.5h124.52c-25.07-67.61-46.6-74.38-64.92-172.17-32.16-171.62,23.17-209.28-22.25-344.77-37-110.5-86.91-124.43-89-200.19-2.77-102.08,84.83-186.8,155.3-240.53l-358.53,75.25c29.78,234.63,85.32,410.16,132.32,529.76C1998.23,3187.08,2045.55,3270.7,2072,3415.5Z"/><path class="cls-21" d="M1628.85,3415.5h221.44q1.2-39,2.49-78.09,14.74-447.13,38.58-878.54c-239.68-11.34-321.78,73.73-348,107.65-80.67,104.46-44.5,272.38,27.85,608.23C1597.77,3297.92,1615.7,3345.26,1628.85,3415.5Z"/><path class="cls-22" d="M2001.31,1670.13c29.59-19.19,2.63-75,1-194.84-2-146.87,37.05-174.24,5.72-231.86-38.31-70.47-134.75-99.62-198.65-101-14.09-.3-17.39-8-135.45,22.58-212.7,55.09-266-4-361.2,55-92,57-51.73,119.41-141.1,186.24-144.85,108.35-297.18-8.78-400.7,81.84-97.93,85.72-100.18,304.11,2.82,423.29,116.76,135.1,327.31,94.51,468.43,67.72,29.69-5.63,179.66-37.13,335.81-152.38a893.93,893.93,0,0,0,183.42-182c8.86-10,22.67-22,40.92-24,21.9-2.33,39.49,11.06,48,16.93C1894.86,1668.5,1972.25,1689,2001.31,1670.13Z"/><path class="cls-23" d="M1893.85,1511.4s-247.08-72.05-355.9,51.13c-16.94,19.18-34.11,47.42-47.27,109.76-46.18,218.73,76.73,296.63,60,495.1-1.92,22.73-23.38,241-181.86,375.09-75.37,63.79-161.25,91.21-159.13,147.76,1.52,40.71,47.94,77.82,90.93,90.94,82.24,25.1,130.23-44.22,238.69-68.2,113.36-25.07,139.62,33.24,318.26,56.83,59.46,7.85,330.87,43.69,397.83-68.2,28.5-47.62-6.64-77.54-56.83-272.79-5.08-19.75-92-362.89-65.68-512.41,2.28-13,10-65.51,7.7-135.21a329.26,329.26,0,0,0-7.7-59.5s-21-97.41-96.76-181C2025.21,1528.65,2012.24,1516.14,1893.85,1511.4Z"/><path class="cls-18" d="M1538,1562.53c-24.9-.28-44.34,95.87-47.27,109.76-46.18,218.73,76.73,296.63,60,495.1-1.92,22.73-23.38,241-181.86,375.09-75.37,63.79-161.25,91.21-159.13,147.76,1.52,40.71,47.94,77.82,90.93,90.94,82.24,25.1,130.23-44.22,238.69-68.2,113.36-25.07,139.62,33.24,318.26,56.83,59.46,7.85,330.87,43.69,397.83-68.2,6.92-11.56,9.53-16.61,8.85-21.55-7.48-54.38-258.75-4.92-321.72-104-61.52-96.82,97.88-270.61,44.49-322.53-41.7-40.55-148,56.58-233.56,11.12-53.62-28.51-62.47-93.66-89-233.55C1617.91,1785.45,1575.75,1563,1538,1562.53Z"/><path class="cls-8" d="M1908.06,2390.81l166.62-412.63a51.74,51.74,0,0,0-32.24-68.67L1712.7,1804.18a39.56,39.56,0,0,0-45.61,24.14l-170.39,435a39.54,39.54,0,0,0,25.8,52.41l337.93,98.06A39.57,39.57,0,0,0,1908.06,2390.81Z"/><path class="cls-17" d="M1886.87,2153.42s33.37-22.25,33.37-44.49,22.24-55.61,33.36-55.61,11.12,11.12,0,33.37,44.49,11.12,66.73-11.12,44.49-22.25,33.37-11.13c-17.59,17.59-22.25,33.37-22.25,33.37s-22.24,89-119.55,83.41Z"/><path class="cls-23" d="M1653.32,1519.49c-71.15-31.74-190.18,99.11-211.31,122.34-112.12,123.24-271.18,402.62-144.58,567.19,105.62,137.3,389.18,167.55,622.81-11.12q-16.68-33.36-33.37-66.73c-24.26,8.8-183.77,64-300.28-22.24-24.72-18.3-35.7-49.74-39.71-92.28-7.48-79.27,85.95-100.37,139.8-219.12C1734.35,1692.41,1714.67,1546.86,1653.32,1519.49Z"/></g><path class="cls-3" d="M1649.94,2506.34c0,40.63-33.23,75.16-74.39,77.13-41.34,2-75-29.63-75-70.6s33.66-75.51,75-77.15C1616.71,2434.09,1649.94,2465.71,1649.94,2506.34Z"/><path class="cls-3" d="M1946.75,2493.36c0,40-32.14,73.9-72,75.8-40,1.91-72.54-29.19-72.54-69.48s32.55-74.24,72.54-75.82C1914.61,2422.28,1946.75,2453.4,1946.75,2493.36Z"/><path class="cls-3" d="M2234,2480.8c0,39.32-31.11,72.68-69.64,74.52-38.7,1.85-70.2-28.77-70.2-68.4s31.5-73,70.2-74.54C2202.84,2410.85,2234,2441.49,2234,2480.8Z"/><rect class="cls-8" x="2711.87" y="671.12" width="574.47" height="631.43" rx="36.28"/><rect class="cls-24" x="2224.49" y="802.85" width="574.47" height="631.43" rx="36.28"/><polygon class="cls-24" points="2255.73 1265.88 2101.53 1434.28 2316.78 1434.28 2255.73 1265.88"/><path class="cls-3" d="M2976,762.17c24.92,0,73.42,0,109.8,28.3,26.27,20.2,41.77,55.23,41.77,93,0,57.93-38.4,81.51-50.53,88.25,29.64,4.71,47.16,17.51,58.61,28.29,26.95,25.6,32.33,60.63,32.33,84.2,0,26.28-7.41,63.33-38.39,90.95-33.69,29.64-74.78,36.37-113.85,36.37h-150.9V762.17Zm-23.58,186.6h24.92c13.48,0,68-1.35,68-58.61,0-41.09-31.66-56.58-67.36-56.58h-25.6Zm0,191.32h37.72c16.17,0,40.42-.68,60-12.13,21.55-12.8,27.62-34.35,27.62-51.87,0-14.15-4.72-38.4-33-51.2-18.86-8.75-41.09-8.75-60-8.75h-32.33Z"/><path class="cls-3" d="M2589.33,1236H2408.12l-39.74,94.31h-95L2466.73,881h68.71l187.95,449.32h-94.31Zm-25.6-71.4-64-161.68-64,161.68Z"/><path class="cls-25" d="M1890.92,1475.79c-5,11.79-25.8,53.17-76.18,61.9-36.06,6.24-55,22.19-64.3,33.63a100.8,100.8,0,0,1-23.12-21.58c-16.24-20.83-21-43.72-22.58-57.79,11.08-1.33,26.79-3.48,45.51-7,28.59-5.36,42.89-8,50.32-12.72,34.33-21.59,17.29-105.48,14-121.11q33.21,37.8,66.44,75.58,3.78,24.32,7.57,48.62Z"/><path class="cls-17" d="M2016.44,1526.28c-7.72,10.06-20.78,20-37.39,33.16-10.91,8.67-56.07,22.85-102,31.21-11.06,2-78.67,13.23-126.64-19.33,9.28-11.44,28.24-27.39,64.3-33.63,50.38-8.73,71.21-50.11,76.18-61.9a445.71,445.71,0,0,1,47.83,11.87C1962.82,1495.06,1998.68,1517.7,2016.44,1526.28Z"/><path class="cls-17" d="M1775.18,1365.14s9.42,93.4,100.22,109.86c81.29,14.74,142.49-181.71,100.89-232.53-13.88-17-48.14-33.07-77.85-32.22-20.89.61-91.44,27.48-101.29,98.07-14.05-14.8-31.56-19-40.19-12.86-11,7.87-5.09,30.73-3.76,35.91C1757.81,1349.32,1769.53,1360.45,1775.18,1365.14Z"/></g></g></svg>