<svg id="Layer_3" data-name="Layer 3" xmlns="http://www.w3.org/2000/svg" viewBox="0 0 720 360"><defs><style>.cls-1{fill:#3374ba;}.cls-2{fill:#f2eee2;}</style></defs><path class="cls-1" d="M688.08,114.63V210.5a44.21,44.21,0,0,1-44.23,44.2H118.92c-20,24-55,40.88-83.78,32.9a4.39,4.39,0,0,1-.26-8.39c12.35-4.15,28.95-13.83,28.95-35.89H64V114.63A44.21,44.21,0,0,1,108.2,70.4H643.85A44.23,44.23,0,0,1,688.08,114.63Z"/><path class="cls-2" d="M108.4,145.79a3.65,3.65,0,0,1-2.78-1.08,5.9,5.9,0,0,1,0-6.63,3.65,3.65,0,0,1,2.79-1.08h35.64a3.65,3.65,0,0,1,2.79,1.08,5.9,5.9,0,0,1,0,6.63,3.65,3.65,0,0,1-2.78,1.08H131.7V186.5a4.67,4.67,0,0,1-1.34,3.57,7.46,7.46,0,0,1-8.27,0,4.67,4.67,0,0,1-1.33-3.57V145.79Z"/><path class="cls-2" d="M153.78,137.63a4.51,4.51,0,0,1,1.32-3.47,7.14,7.14,0,0,1,8,0,4.55,4.55,0,0,1,1.31,3.47v11.81c0,1,0,2-.08,3s-.14,2-.27,3.08h.12A11.82,11.82,0,0,1,167,153a14.52,14.52,0,0,1,1.59-.93,15.62,15.62,0,0,1,2-.82,15.38,15.38,0,0,1,2.34-.59,16.58,16.58,0,0,1,2.74-.21,17.6,17.6,0,0,1,6.24,1.05,12.66,12.66,0,0,1,4.74,3.14,13.9,13.9,0,0,1,3,5.12,21.7,21.7,0,0,1,1,7v19.89a4.55,4.55,0,0,1-1.31,3.47,7.18,7.18,0,0,1-8,0,4.51,4.51,0,0,1-1.32-3.47V168a15.06,15.06,0,0,0-.49-4.12,7.45,7.45,0,0,0-1.41-2.83,5.38,5.38,0,0,0-2.25-1.6,8.43,8.43,0,0,0-3-.51,7.28,7.28,0,0,0-2,.25,10.49,10.49,0,0,0-1.7.65,7.31,7.31,0,0,0-1.45.92,15.36,15.36,0,0,0-1.16,1,12.31,12.31,0,0,0-2.08,2.86v22a4.55,4.55,0,0,1-1.31,3.47,7.18,7.18,0,0,1-8,0,4.51,4.51,0,0,1-1.32-3.47Z"/><path class="cls-2" d="M210,173.32v.08a13.3,13.3,0,0,0,1.1,4.31,9.27,9.27,0,0,0,5.72,5.14,14,14,0,0,0,4.48.67,18.82,18.82,0,0,0,3.51-.28,23.92,23.92,0,0,0,2.56-.6c.74-.22,1.38-.43,1.95-.61a5.23,5.23,0,0,1,1.59-.28,3.09,3.09,0,0,1,2.33,1,3.22,3.22,0,0,1,.63,1,3.64,3.64,0,0,1,.21,1.25,4.31,4.31,0,0,1-.31,1.71,4.75,4.75,0,0,1-1,1.43,8.19,8.19,0,0,1-1.73,1.23,14.64,14.64,0,0,1-2.8,1.18,26.77,26.77,0,0,1-3.88.88,31,31,0,0,1-4.93.35,24.49,24.49,0,0,1-8.39-1.35,17.31,17.31,0,0,1-6.32-3.88,17,17,0,0,1-4-6.12,22.52,22.52,0,0,1-1.37-8.06,27.54,27.54,0,0,1,1.47-9.32,19.87,19.87,0,0,1,4.1-6.92,17.45,17.45,0,0,1,6.29-4.31,21.14,21.14,0,0,1,8.06-1.49,19,19,0,0,1,6.83,1.17,14.45,14.45,0,0,1,5.22,3.4,15.12,15.12,0,0,1,3.33,5.39,20.55,20.55,0,0,1,1.18,7.22,6.05,6.05,0,0,1-1.36,4.35,5.1,5.1,0,0,1-3.86,1.41Zm15.92-6.82q-.51-4.4-2.37-6.48a6.72,6.72,0,0,0-5.27-2.07,7.48,7.48,0,0,0-2.71.49,6.69,6.69,0,0,0-2.37,1.53,9.36,9.36,0,0,0-1.87,2.64,15.38,15.38,0,0,0-1.21,3.89Z"/><path class="cls-2" d="M264.23,152.18a15.79,15.79,0,0,1,1.26-6.33,13.75,13.75,0,0,1,3.75-5.06,17.74,17.74,0,0,1,6.18-3.34,28.12,28.12,0,0,1,8.57-1.19,30,30,0,0,1,4.43.29,23.74,23.74,0,0,1,3.58.77,14.55,14.55,0,0,1,2.69,1.11,7.59,7.59,0,0,1,1.74,1.24,4.62,4.62,0,0,1,1.16,1.66,5.35,5.35,0,0,1,.3,1.87,3.62,3.62,0,0,1-1.06,2.78,3.84,3.84,0,0,1-2.72,1,4.88,4.88,0,0,1-1.86-.35c-.59-.23-1.27-.5-2-.78a21.32,21.32,0,0,0-2.78-.79,19.18,19.18,0,0,0-4-.35,13.73,13.73,0,0,0-3.74.45,7.59,7.59,0,0,0-2.61,1.29,5.1,5.1,0,0,0-1.53,2,6.18,6.18,0,0,0-.49,2.49,5,5,0,0,0,1.06,3.27,9,9,0,0,0,2.83,2.26,24.93,24.93,0,0,0,4,1.68q2.24.75,4.55,1.61a42.78,42.78,0,0,1,4.56,2,16.5,16.5,0,0,1,4,2.9,13.14,13.14,0,0,1,2.82,4.26A15.54,15.54,0,0,1,300,175a16.94,16.94,0,0,1-1.31,6.73,14.45,14.45,0,0,1-3.91,5.31,18.48,18.48,0,0,1-6.48,3.49,29.31,29.31,0,0,1-9,1.26,32.39,32.39,0,0,1-5-.34,27.56,27.56,0,0,1-3.91-.84,15.06,15.06,0,0,1-2.85-1.14,7.72,7.72,0,0,1-1.75-1.21,5.25,5.25,0,0,1-1.17-1.65,4.86,4.86,0,0,1-.36-2,3.73,3.73,0,0,1,1.06-2.84,3.79,3.79,0,0,1,2.71-1,4.57,4.57,0,0,1,1.86.4c.59.26,1.3.54,2.14.84a24.37,24.37,0,0,0,3.08.84,22,22,0,0,0,4.64.39,14.44,14.44,0,0,0,4.14-.52,8.6,8.6,0,0,0,2.89-1.45,5.91,5.91,0,0,0,1.7-2.22,7,7,0,0,0,.57-2.83,5.61,5.61,0,0,0-1.06-3.51,9.52,9.52,0,0,0-2.8-2.41,22.59,22.59,0,0,0-4-1.8c-1.49-.53-3-1.08-4.57-1.67s-3.08-1.25-4.57-2a15.54,15.54,0,0,1-4-2.78,12.9,12.9,0,0,1-2.81-4.08A14.43,14.43,0,0,1,264.23,152.18Z"/><path class="cls-2" d="M309.61,155.2a4,4,0,0,1,4.44-4.43,6.2,6.2,0,0,1,1.86.25,4.13,4.13,0,0,1,1.39.75,3.69,3.69,0,0,1,.94,1.2,4.89,4.89,0,0,1,.47,1.56l.32,2h.15a13,13,0,0,1,2.83-3.05,11.11,11.11,0,0,1,1.63-1.14,11.92,11.92,0,0,1,2.06-1,14.06,14.06,0,0,1,2.49-.69,16,16,0,0,1,3-.25,15.19,15.19,0,0,1,7.65,1.8,12.79,12.79,0,0,1,4.9,5,16,16,0,0,1,3.18-3.41,21.31,21.31,0,0,1,1.82-1.24,15.57,15.57,0,0,1,2.24-1.1,16.84,16.84,0,0,1,2.68-.78,15.59,15.59,0,0,1,3.14-.29,16.76,16.76,0,0,1,6.06,1.05,12.4,12.4,0,0,1,4.65,3.14,14.25,14.25,0,0,1,3,5.12,21.7,21.7,0,0,1,1,7v19.89a4.55,4.55,0,0,1-1.31,3.47,7.2,7.2,0,0,1-8.05,0,4.55,4.55,0,0,1-1.31-3.47V168a16,16,0,0,0-.47-4.12A7.55,7.55,0,0,0,359,161a5.36,5.36,0,0,0-2.18-1.6,7.6,7.6,0,0,0-2.84-.51,6.89,6.89,0,0,0-1.91.25,8.81,8.81,0,0,0-1.64.67,7.62,7.62,0,0,0-1.41,1,12.38,12.38,0,0,0-1.16,1.1,13,13,0,0,0-2.08,2.94c0,.29,0,.77.06,1.45s.06,1.43.06,2.24v18.08a4.58,4.58,0,0,1-1.3,3.47,5.62,5.62,0,0,1-4,1.23,5.72,5.72,0,0,1-4-1.23,4.51,4.51,0,0,1-1.31-3.47V168a15.46,15.46,0,0,0-.49-4.12,8,8,0,0,0-1.38-2.83,5.14,5.14,0,0,0-2.17-1.6,7.8,7.8,0,0,0-2.87-.51,6.68,6.68,0,0,0-1.86.25,8.8,8.8,0,0,0-1.63.65,8,8,0,0,0-1.37.92c-.42.35-.8.7-1.14,1a13.07,13.07,0,0,0-2,2.86v22a4.51,4.51,0,0,1-1.31,3.47,7.18,7.18,0,0,1-8,0,4.51,4.51,0,0,1-1.32-3.47Z"/><path class="cls-2" d="M405,165.57a10.42,10.42,0,0,0-.44-3.21,4.71,4.71,0,0,0-1.39-2.16,6.1,6.1,0,0,0-2.55-1.25,15.32,15.32,0,0,0-3.86-.41,20.49,20.49,0,0,0-4.14.35,21.42,21.42,0,0,0-3,.8c-.84.3-1.56.57-2.18.81a5,5,0,0,1-1.74.35,3.23,3.23,0,0,1-2.34-.9,3.55,3.55,0,0,1-.92-2.63,4,4,0,0,1,.28-1.57,4,4,0,0,1,.94-1.33,8,8,0,0,1,2-1.34,20.21,20.21,0,0,1,3.37-1.29,34.46,34.46,0,0,1,4.53-1,36.62,36.62,0,0,1,5.53-.39q8.2,0,12.32,3.54t4.12,10.34v12.83a35.55,35.55,0,0,0,.21,4.31c.14,1.1.3,2,.45,2.75s.31,1.34.46,1.82a5.58,5.58,0,0,1,.21,1.55,3.7,3.7,0,0,1-.31,1.53,3.65,3.65,0,0,1-.91,1.24,4.17,4.17,0,0,1-1.47.82,6.23,6.23,0,0,1-2,.29,5.91,5.91,0,0,1-2.17-.37,5.21,5.21,0,0,1-1.69-1,5.9,5.9,0,0,1-1.22-1.59,10.5,10.5,0,0,1-.8-2h-.12a13.17,13.17,0,0,1-2.94,2.71A16.92,16.92,0,0,1,399.5,191a15.53,15.53,0,0,1-5.32.82,17,17,0,0,1-5.82-.92,12.59,12.59,0,0,1-4.36-2.55,10.84,10.84,0,0,1-2.72-3.87,12.4,12.4,0,0,1-.95-4.87,9.71,9.71,0,0,1,1.26-5,10.46,10.46,0,0,1,3.53-3.6,17.69,17.69,0,0,1,5.49-2.16,33,33,0,0,1,7.18-.72c1.1,0,2.08,0,3,.11s1.63.16,2.26.24,1.38.22,2,.35Zm0,10.11c-.53-.14-1.1-.25-1.73-.36s-1.19-.19-1.92-.27a23,23,0,0,0-2.47-.12A12,12,0,0,0,393,176a3.5,3.5,0,0,0-1.9,3.22,4.52,4.52,0,0,0,.39,1.88,4.34,4.34,0,0,0,1.14,1.49,5.68,5.68,0,0,0,1.84,1,8.85,8.85,0,0,0,5.91-.3,12.1,12.1,0,0,0,2.49-1.45,13,13,0,0,0,2.08-2.11Z"/><path class="cls-2" d="M426.85,155.2a4,4,0,0,1,4.43-4.43,6.23,6.23,0,0,1,1.87.25,4,4,0,0,1,1.37.75,3.7,3.7,0,0,1,.92,1.21,5.87,5.87,0,0,1,.51,1.63l.51,2.87h.12a17.73,17.73,0,0,1,1.73-2.85,11.7,11.7,0,0,1,2.19-2.25,9.93,9.93,0,0,1,2.61-1.47,8,8,0,0,1,2.92-.53,4.66,4.66,0,0,1,3.45,1.21,5.1,5.1,0,0,1,1.22,3.77,8,8,0,0,1-1.14,4.61,3.29,3.29,0,0,1-2.7,1.63,3.22,3.22,0,0,1-.79-.1l-.68-.2-.69-.2a3.35,3.35,0,0,0-.82-.1,3.94,3.94,0,0,0-1.87.5,7.35,7.35,0,0,0-1.72,1.27,12.19,12.19,0,0,0-1.51,1.79,17.47,17.47,0,0,0-1.26,2.06v20a4.55,4.55,0,0,1-1.31,3.47,7.18,7.18,0,0,1-8,0,4.51,4.51,0,0,1-1.32-3.47Z"/><path class="cls-2" d="M455.92,159.12a3.31,3.31,0,0,1-2.53-1,4.19,4.19,0,0,1-1-3,4.13,4.13,0,0,1,1-2.94,3.31,3.31,0,0,1,2.53-1h3.45l1.25-6.63a5.66,5.66,0,0,1,1.63-3.29,4.65,4.65,0,0,1,3.2-1.06,4.2,4.2,0,0,1,3.14,1.12,4.42,4.42,0,0,1,1.09,3.23v6.63h6.63a3.31,3.31,0,0,1,2.53,1,4.13,4.13,0,0,1,1,2.94,4.19,4.19,0,0,1-1,3,3.31,3.31,0,0,1-2.53,1h-6.63V178a6.46,6.46,0,0,0,.94,4,3.52,3.52,0,0,0,2.91,1.18,8.75,8.75,0,0,0,1.23-.08,7,7,0,0,0,1-.2c.29-.08.55-.14.79-.19a3.57,3.57,0,0,1,.74-.08,2.93,2.93,0,0,1,1.16.23,2.7,2.7,0,0,1,.9.65,3,3,0,0,1,.59,1,3.62,3.62,0,0,1,.22,1.3,4.35,4.35,0,0,1-.36,1.86,4.72,4.72,0,0,1-1,1.43,6,6,0,0,1-1.07.82,8.63,8.63,0,0,1-1.69.79,16.09,16.09,0,0,1-2.33.59,18.32,18.32,0,0,1-3,.23q-6,0-8.78-2.84C460,186.74,459,183.85,459,180V159.12Z"/><path class="cls-2" d="M506.4,145.79a3.65,3.65,0,0,1-2.79-1.08,5.9,5.9,0,0,1,0-6.63A3.65,3.65,0,0,1,506.4,137h35.65a3.65,3.65,0,0,1,2.78,1.08,4.67,4.67,0,0,1,1,3.31,4.74,4.74,0,0,1-1,3.32,3.67,3.67,0,0,1-2.79,1.08H529.69V186.5a4.67,4.67,0,0,1-1.33,3.57,7.46,7.46,0,0,1-8.27,0,4.67,4.67,0,0,1-1.34-3.57V145.79Z"/><path class="cls-2" d="M569.78,165.57a10.44,10.44,0,0,0-.43-3.21A4.79,4.79,0,0,0,568,160.2a6.16,6.16,0,0,0-2.55-1.25,15.4,15.4,0,0,0-3.87-.41,20.32,20.32,0,0,0-4.13.35,21.59,21.59,0,0,0-3,.8c-.83.3-1.56.57-2.17.81a5,5,0,0,1-1.75.35,3.19,3.19,0,0,1-2.33-.9,3.51,3.51,0,0,1-.92-2.63,3.65,3.65,0,0,1,1.21-2.9,8,8,0,0,1,2-1.34,20.56,20.56,0,0,1,3.37-1.29,35,35,0,0,1,4.54-1,36.62,36.62,0,0,1,5.53-.39q8.19,0,12.31,3.54t4.12,10.34v12.83a33.34,33.34,0,0,0,.22,4.31c.14,1.1.29,2,.45,2.75s.3,1.34.45,1.82a5.58,5.58,0,0,1,.21,1.55,3.7,3.7,0,0,1-.31,1.53,3.76,3.76,0,0,1-.9,1.24,4.17,4.17,0,0,1-1.47.82,6.27,6.27,0,0,1-2,.29,6,6,0,0,1-2.18-.37,5.32,5.32,0,0,1-1.69-1,5.67,5.67,0,0,1-1.21-1.59,9.91,9.91,0,0,1-.81-2H571a13,13,0,0,1-3,2.71,16.92,16.92,0,0,1-3.74,1.84,15.53,15.53,0,0,1-5.32.82,17,17,0,0,1-5.82-.92,12.63,12.63,0,0,1-4.35-2.55,11,11,0,0,1-2.73-3.87,12.4,12.4,0,0,1-.94-4.87,9.81,9.81,0,0,1,1.25-5,10.55,10.55,0,0,1,3.53-3.6,17.79,17.79,0,0,1,5.49-2.16,33,33,0,0,1,7.18-.72c1.1,0,2.09,0,3,.11s1.63.16,2.26.24,1.39.22,2,.35Zm0,10.11c-.52-.14-1.1-.25-1.73-.36s-1.19-.19-1.92-.27a22.82,22.82,0,0,0-2.47-.12,12,12,0,0,0-5.82,1.1,3.51,3.51,0,0,0-1.91,3.22,4.53,4.53,0,0,0,.4,1.88,4.22,4.22,0,0,0,1.14,1.49,5.48,5.48,0,0,0,1.84,1,8.82,8.82,0,0,0,5.9-.3,11,11,0,0,0,4.57-3.56Z"/><path class="cls-2" d="M591.51,137.63a4.55,4.55,0,0,1,1.31-3.47,7.14,7.14,0,0,1,8,0,4.51,4.51,0,0,1,1.32,3.47V178a14,14,0,0,0,.19,2.55,4.7,4.7,0,0,0,.57,1.61,2.16,2.16,0,0,0,.89.82,2.57,2.57,0,0,0,1.13.24,7.05,7.05,0,0,0,1-.06,6.36,6.36,0,0,1,.87-.06,2.55,2.55,0,0,1,1,.19,2.26,2.26,0,0,1,.82.59,3,3,0,0,1,.57,1,3.81,3.81,0,0,1,.21,1.32,4.93,4.93,0,0,1-.33,1.92,4.29,4.29,0,0,1-.92,1.37,6.18,6.18,0,0,1-.94.75,8.12,8.12,0,0,1-1.32.65,9.76,9.76,0,0,1-1.82.47,15.86,15.86,0,0,1-2.43.17q-5,0-7.55-2.65t-2.57-8Z"/><path class="cls-2" d="M639.32,153.75l.92-1,.69-.71a4.9,4.9,0,0,1,1.47-1,4.81,4.81,0,0,1,1.83-.33,5.35,5.35,0,0,1,2,.41,6,6,0,0,1,1.72,1.1,5.47,5.47,0,0,1,1.2,1.59,4.06,4.06,0,0,1,.45,1.84,4.17,4.17,0,0,1-.37,1.63,6.07,6.07,0,0,1-1.32,1.78L637.75,169l11.07,13.7a7.5,7.5,0,0,1,1,1.63,4.19,4.19,0,0,1,.4,1.83,4.34,4.34,0,0,1-.53,2.1,6.18,6.18,0,0,1-3.22,2.76,5.91,5.91,0,0,1-2.1.39,4.38,4.38,0,0,1-1.84-.37,5.07,5.07,0,0,1-1.49-1c-.29-.29-.54-.57-.77-.84s-.47-.61-.76-1l-13.18-17.66v16.09a4.55,4.55,0,0,1-1.31,3.48,7.18,7.18,0,0,1-8,0,4.51,4.51,0,0,1-1.32-3.47v-49a4.51,4.51,0,0,1,1.32-3.47,7.14,7.14,0,0,1,8,0,4.55,4.55,0,0,1,1.31,3.47v30.3Z"/></svg>